<?xml version="1.0" encoding="UTF-8"?>
<svg xmlns="http://www.w3.org/2000/svg" xmlns:xlink="http://www.w3.org/1999/xlink" width="122pt" height="122pt" viewBox="0 0 122 122" version="1.1">
<g id="surface1">
<path style="fill:none;stroke-width:0.3985;stroke-linecap:butt;stroke-linejoin:miter;stroke:rgb(0%,0%,0%);stroke-opacity:1;stroke-miterlimit:10;" d="M -59.128568 0.00163205 L 59.131144 0.00163205 " transform="matrix(1.00005,0,0,-1.00002,60.990899,60.728195)"/>
<path style="fill:none;stroke-width:0.3985;stroke-linecap:round;stroke-linejoin:round;stroke:rgb(0%,0%,0%);stroke-opacity:1;stroke-miterlimit:10;" d="M -2.071642 2.392851 C -1.692755 0.95538 -0.849047 0.279612 -0.00143324 -0.00163205 C -0.849047 -0.27897 -1.692755 -0.954738 -2.071642 -2.392209 " transform="matrix(-1.00005,0,0,1.00002,1.658723,60.728195)"/>
<path style="fill:none;stroke-width:0.3985;stroke-linecap:round;stroke-linejoin:round;stroke:rgb(0%,0%,0%);stroke-opacity:1;stroke-miterlimit:10;" d="M -2.072972 2.392209 C -1.694085 0.954738 -0.850377 0.27897 0.00114283 0.00163205 C -0.850377 -0.279612 -1.694085 -0.95538 -2.072972 -2.392851 " transform="matrix(1.00005,0,0,-1.00002,120.323076,60.728195)"/>
<path style="fill:none;stroke-width:0.3985;stroke-linecap:butt;stroke-linejoin:miter;stroke:rgb(0%,0%,0%);stroke-opacity:1;stroke-miterlimit:10;" d="M 0.00128804 -59.129998 L 0.00128804 59.129356 " transform="matrix(1.00005,0,0,-1.00002,60.990899,60.728195)"/>
<path style="fill:none;stroke-width:0.3985;stroke-linecap:round;stroke-linejoin:round;stroke:rgb(0%,0%,0%);stroke-opacity:1;stroke-miterlimit:10;" d="M -2.074175 2.391794 C -1.695276 0.958271 -0.851543 0.278618 0.00000258575 0.00128804 C -0.851543 -0.279948 -1.695276 -0.955695 -2.074175 -2.389217 " transform="matrix(0,1.00002,1.00005,0,60.990899,120.058591)"/>
<path style="fill:none;stroke-width:0.3985;stroke-linecap:round;stroke-linejoin:round;stroke:rgb(0%,0%,0%);stroke-opacity:1;stroke-miterlimit:10;" d="M -2.070911 2.389217 C -1.692012 0.955695 -0.848279 0.279948 -0.000639491 -0.00128804 C -0.848279 -0.278618 -1.692012 -0.958271 -2.070911 -2.391794 " transform="matrix(0,-1.00002,-1.00005,0,60.990899,1.397798)"/>
<path style="fill:none;stroke-width:0.79701;stroke-linecap:butt;stroke-linejoin:miter;stroke:rgb(0%,0%,100%);stroke-opacity:1;stroke-miterlimit:10;" d="M 0.00128804 0.00163205 L 14.891169 -14.310582 L 20.664317 -19.083924 L 24.83989 -22.040896 L 28.167848 -24.009606 L 30.933335 -25.32208 L 33.300404 -26.173626 L 35.358895 -26.66971 L 37.179117 -26.900174 L 38.792317 -26.907986 L 40.241464 -26.743927 L 41.549992 -26.435339 L 42.72962 -26.009566 L 43.803785 -25.482233 L 44.784205 -24.876777 L 45.674786 -24.193197 L 46.495057 -23.45493 L 47.252832 -22.673696 L 47.940297 -21.841681 L 48.58089 -20.974511 L 49.158986 -20.076091 L 49.694116 -19.150329 L 50.182373 -18.201129 L 50.635475 -17.232398 L 51.045611 -16.248043 L 51.436216 -15.255875 L 51.772137 -14.240271 L 52.088527 -13.216854 L 52.373669 -12.18953 L 52.631469 -11.150489 L 52.85802 -10.103635 L 53.068947 -9.056781 L 53.240814 -7.998208 L 53.39315 -6.939635 L 53.525956 -5.877157 L 53.635325 -4.810772 L 53.721258 -3.744387 L 53.779849 -2.674096 L 53.822816 -1.603805 L 53.846252 -0.533513 L 53.846252 0.532871 L 53.822816 1.603163 L 53.779849 2.673454 L 53.721258 3.743745 L 53.635325 4.81013 L 53.525956 5.876515 L 53.39315 6.938993 L 53.240814 7.997566 L 53.057229 9.052232 L 52.85802 10.102993 L 52.635375 11.149847 L 52.373669 12.188888 L 52.088527 13.220118 L 51.772137 14.239629 L 51.436216 15.255233 L 51.049517 16.247401 L 50.635475 17.235662 L 50.182373 18.200487 L 49.694116 19.149687 L 49.162892 20.075449 L 48.573078 20.973869 L 47.940297 21.841039 L 47.252832 22.673054 L 46.502869 23.4621 L 45.678692 24.196461 L 44.784205 24.876135 L 43.803785 25.481591 L 42.72962 26.008924 L 41.549992 26.438603 L 40.241464 26.743285 L 38.792317 26.907344 L 37.179117 26.899532 L 35.358895 26.669067 L 33.30431 26.172984 L 30.933335 25.321438 L 28.167848 24.008964 L 24.83989 22.040254 L 20.664317 19.083282 L 14.891169 14.30994 L 0.00128804 0.00163205 " transform="matrix(1.00005,0,0,-1.00002,60.990899,60.728195)"/>
<path style="fill:none;stroke-width:0.79701;stroke-linecap:butt;stroke-linejoin:miter;stroke:rgb(0%,0%,100%);stroke-opacity:1;stroke-miterlimit:10;" d="M 0.00128804 0.00163205 L -14.892499 14.313846 L -20.661741 19.083282 L -24.837314 22.040254 L -28.165272 24.008964 L -30.930759 25.321438 L -33.301734 26.172984 L -35.360225 26.669067 L -37.180447 26.899532 L -38.793647 26.907344 L -40.242794 26.743285 L -41.547416 26.438603 L -42.73095 26.008924 L -43.805115 25.481591 L -44.781629 24.876135 L -45.676116 24.196461 L -46.492481 23.458194 L -47.254162 22.673054 L -47.941627 21.841039 L -48.578314 20.977775 L -49.160316 20.075449 L -49.695446 19.149687 L -50.183703 18.200487 L -50.632899 17.235662 L -51.046941 16.251307 L -51.437546 15.255233 L -51.773467 14.239629 L -52.089857 13.220118 L -52.371093 12.188888 L -52.632799 11.149847 L -52.85935 10.102993 L -53.066371 9.056138 L -53.238237 7.997566 L -53.39448 6.938993 L -53.527286 5.876515 L -53.632749 4.81013 L -53.722588 3.743745 L -53.781179 2.673454 L -53.824146 1.603163 L -53.847582 0.532871 L -53.847582 -0.533513 L -53.824146 -1.603805 L -53.781179 -2.674096 L -53.722588 -3.744387 L -53.632749 -4.810772 L -53.527286 -5.877157 L -53.39448 -6.939635 L -53.238237 -7.998208 L -53.058559 -9.052874 L -52.85935 -10.103635 L -52.632799 -11.150489 L -52.371093 -12.18953 L -52.089857 -13.216854 L -51.773467 -14.240271 L -51.437546 -15.251969 L -51.046941 -16.248043 L -50.632899 -17.232398 L -50.183703 -18.201129 L -49.695446 -19.150329 L -49.160316 -20.076091 L -48.570502 -20.970605 L -47.941627 -21.841681 L -47.254162 -22.673696 L -46.500293 -23.462742 L -45.676116 -24.197103 L -44.781629 -24.876777 L -43.805115 -25.482233 L -42.73095 -26.009566 L -41.551322 -26.439245 L -40.242794 -26.743927 L -38.793647 -26.907986 L -37.180447 -26.900174 L -35.360225 -26.66971 L -33.301734 -26.173626 L -30.934665 -25.32208 L -28.165272 -24.009606 L -24.84122 -22.040896 L -20.661741 -19.083924 L -14.892499 -14.310582 L 0.00128804 0.00163205 " transform="matrix(1.00005,0,0,-1.00002,60.990899,60.728195)"/>
</g>
</svg>
