<?xml version="1.0" encoding="UTF-8"?>
<svg xmlns="http://www.w3.org/2000/svg" xmlns:xlink="http://www.w3.org/1999/xlink" width="9pt" height="9pt" viewBox="0 0 9 9" version="1.1">
<g id="surface1">
<path style="fill:none;stroke-width:0.59776;stroke-linecap:butt;stroke-linejoin:miter;stroke:rgb(0%,0%,0%);stroke-opacity:1;stroke-miterlimit:10;" d="M 2.283625 1.28608 L 1.9555 1.543888 L 1.5805 1.801695 L 1.182062 2.043878 L 0.768 2.270436 L 0.36175 2.461838 L -0.0249688 2.621991 L -0.380438 2.731364 L -0.685125 2.789957 L -0.931219 2.789957 L -1.110906 2.727458 L -1.220281 2.606366 L -1.259344 2.41887 L -1.220281 2.180594 L -1.118719 1.883725 L -0.954656 1.539982 L -0.739813 1.157177 L -0.485906 0.743122 L -0.204656 0.309537 L 0.0844062 -0.127954 L 0.369562 -0.565445 L 0.635187 -0.987312 L 0.869562 -1.381835 L 1.057062 -1.745109 L 1.185969 -2.061509 L 1.252375 -2.327129 L 1.244562 -2.538062 L 1.166437 -2.686496 L 1.014094 -2.768526 L 0.795344 -2.795869 L 0.514094 -2.760714 L 0.178156 -2.674778 L -0.196844 -2.534156 L -0.599188 -2.354472 L -1.009344 -2.139632 L -1.415594 -1.905262 L -1.802313 -1.651361 L -2.153875 -1.393554 " transform="matrix(1,0,0,-1.00002,4.357,4.868137)"/>
<path style="fill:none;stroke-width:0.59776;stroke-linecap:butt;stroke-linejoin:miter;stroke:rgb(0%,0%,0%);stroke-opacity:1;stroke-miterlimit:10;" d="M -2.798406 -2.26463 L -1.509344 -0.522477 M 1.639094 0.415004 L 2.928156 2.161063 " transform="matrix(1,0,0,-1.00002,4.357,4.868137)"/>
</g>
</svg>
