<?xml version="1.0" encoding="UTF-8"?>
<svg xmlns="http://www.w3.org/2000/svg" xmlns:xlink="http://www.w3.org/1999/xlink" width="122pt" height="122pt" viewBox="0 0 122 122" version="1.1">
<g id="surface1">
<path style="fill:none;stroke-width:0.3985;stroke-linecap:butt;stroke-linejoin:miter;stroke:rgb(0%,0%,0%);stroke-opacity:1;stroke-miterlimit:10;" d="M -59.128568 0.00163205 L 59.131144 0.00163205 " transform="matrix(1.00005,0,0,-1.00002,60.990899,60.728195)"/>
<path style="fill:none;stroke-width:0.3985;stroke-linecap:round;stroke-linejoin:round;stroke:rgb(0%,0%,0%);stroke-opacity:1;stroke-miterlimit:10;" d="M -2.071642 2.392851 C -1.692755 0.95538 -0.849047 0.279612 -0.00143324 -0.00163205 C -0.849047 -0.27897 -1.692755 -0.954738 -2.071642 -2.392209 " transform="matrix(-1.00005,0,0,1.00002,1.658723,60.728195)"/>
<path style="fill:none;stroke-width:0.3985;stroke-linecap:round;stroke-linejoin:round;stroke:rgb(0%,0%,0%);stroke-opacity:1;stroke-miterlimit:10;" d="M -2.072972 2.392209 C -1.694085 0.954738 -0.850377 0.27897 0.00114283 0.00163205 C -0.850377 -0.279612 -1.694085 -0.95538 -2.072972 -2.392851 " transform="matrix(1.00005,0,0,-1.00002,120.323076,60.728195)"/>
<path style="fill:none;stroke-width:0.3985;stroke-linecap:butt;stroke-linejoin:miter;stroke:rgb(0%,0%,0%);stroke-opacity:1;stroke-miterlimit:10;" d="M 0.00128804 -59.129998 L 0.00128804 59.129356 " transform="matrix(1.00005,0,0,-1.00002,60.990899,60.728195)"/>
<path style="fill:none;stroke-width:0.3985;stroke-linecap:round;stroke-linejoin:round;stroke:rgb(0%,0%,0%);stroke-opacity:1;stroke-miterlimit:10;" d="M -2.074175 2.391794 C -1.695276 0.958271 -0.851543 0.278618 0.00000258575 0.00128804 C -0.851543 -0.279948 -1.695276 -0.955695 -2.074175 -2.389217 " transform="matrix(0,1.00002,1.00005,0,60.990899,120.058591)"/>
<path style="fill:none;stroke-width:0.3985;stroke-linecap:round;stroke-linejoin:round;stroke:rgb(0%,0%,0%);stroke-opacity:1;stroke-miterlimit:10;" d="M -2.070911 2.389217 C -1.692012 0.955695 -0.848279 0.279948 -0.000639491 -0.00128804 C -0.848279 -0.278618 -1.692012 -0.958271 -2.070911 -2.391794 " transform="matrix(0,-1.00002,-1.00005,0,60.990899,1.397798)"/>
<path style="fill:none;stroke-width:0.79701;stroke-linecap:butt;stroke-linejoin:miter;stroke:rgb(0%,0%,100%);stroke-opacity:1;stroke-miterlimit:10;" d="M 51.026081 0.00163205 L 50.811248 3.591404 L 50.178467 7.130396 L 49.139456 10.563921 L 47.705934 13.841199 L 45.905243 16.91145 L 43.768631 19.735612 L 41.331253 22.266812 L 38.636075 24.481611 L 35.722158 26.340949 L 32.636375 27.825294 L 29.437316 28.922929 L 26.171855 29.622133 L 22.890769 29.922909 L 19.644837 29.825254 L 16.488745 29.352608 L 13.465459 28.512781 L 10.621851 27.337023 L 7.996982 25.848771 L 5.626007 24.0949 L 3.540174 22.106659 L 1.762919 19.927015 L 0.309866 17.606749 L -0.803359 15.188828 L -1.580664 12.720128 L -2.014236 10.251427 L -2.1197 7.825694 L -1.912679 5.489804 L -1.412704 3.286723 L -0.643211 1.247701 L 0.356739 -0.5882 L 1.559804 -2.193637 L 2.919111 -3.552984 L 4.403412 -4.642806 L 5.958021 -5.45529 L 7.551692 -5.990436 L 9.129738 -6.248243 L 10.657005 -6.236524 L 12.090527 -5.974811 L 13.39515 -5.478727 L 14.539624 -4.779522 L 15.488795 -3.90454 L 16.223133 -2.892841 L 16.723108 -1.775676 L 16.973096 -0.599918 L 16.973096 0.599276 L 16.723108 1.775034 L 16.223133 2.892199 L 15.488795 3.907804 L 14.539624 4.77888 L 13.39515 5.478085 L 12.090527 5.974169 L 10.657005 6.235882 L 9.129738 6.247601 L 7.551692 5.989794 L 5.958021 5.454648 L 4.403412 4.642164 L 2.919111 3.552342 L 1.559804 2.192994 L 0.356739 0.587558 L -0.643211 -1.248343 L -1.412704 -3.287365 L -1.912679 -5.490446 L -2.1197 -7.826336 L -2.014236 -10.248163 L -1.580664 -12.716864 L -0.803359 -15.185564 L 0.309866 -17.603485 L 1.762919 -19.923751 L 3.540174 -22.103395 L 5.626007 -24.095542 L 7.996982 -25.849413 L 10.621851 -27.333759 L 13.465459 -28.513423 L 16.488745 -29.35325 L 19.644837 -29.825896 L 22.890769 -29.923551 L 26.167948 -29.622775 L 29.437316 -28.923571 L 32.636375 -27.825936 L 35.722158 -26.337685 L 38.632169 -24.482253 L 41.331253 -22.267454 L 43.768631 -19.736254 L 45.905243 -16.912092 L 47.705934 -13.841841 L 49.13555 -10.564563 L 50.178467 -7.131038 L 50.811248 -3.592046 L 51.022174 0.00163205 " transform="matrix(1.00005,0,0,-1.00002,60.990899,60.728195)"/>
</g>
</svg>
