<?xml version="1.0" encoding="UTF-8"?>
<svg xmlns="http://www.w3.org/2000/svg" xmlns:xlink="http://www.w3.org/1999/xlink" width="185pt" height="157pt" viewBox="0 0 185 157" version="1.1">
<defs>
<clipPath id="clip1">
  <path d="M 14 0 L 183.539062 0 L 183.539062 157 L 14 157 Z M 14 0 "/>
</clipPath>
<clipPath id="clip2">
  <path d="M 15 5 L 183.539062 5 L 183.539062 144 L 15 144 Z M 15 5 "/>
</clipPath>
</defs>
<g id="surface1">
<g clip-path="url(#clip1)" clip-rule="nonzero">
<path style="fill:none;stroke-width:0.79701;stroke-linecap:butt;stroke-linejoin:miter;stroke:rgb(0%,0%,100%);stroke-opacity:1;stroke-miterlimit:10;" d="M 188.202621 3.843105 L 173.034955 7.784196 L 158.664149 11.725287 L 145.094108 15.666378 L 132.320926 19.607469 L 120.344603 23.54856 L 109.172951 27.489651 L 98.794253 31.430742 L 89.212413 35.371833 L 80.431339 39.312924 L 72.451029 43.254015 L 65.263673 47.195106 L 58.877082 51.136197 L 53.291256 55.081193 L 48.50229 59.022284 L 44.510182 62.963375 L 41.314933 66.904466 L 38.92045 70.845557 L 37.322826 74.786648 L 36.525967 78.727739 L 36.525967 82.66883 L 37.322826 86.609921 L 38.92045 90.551012 L 41.314933 94.492103 L 44.510182 98.433194 L 48.498384 102.374285 L 53.28735 106.315376 L 58.877082 110.256467 L 65.263673 114.197558 L 72.447123 118.138649 L 80.431339 122.07974 L 89.212413 126.020831 L 98.774722 129.961922 L 109.169045 133.906919 L 120.340697 137.84801 L 132.305301 141.789101 L 145.078483 145.730192 L 158.644618 149.671283 L 173.023237 153.612373 L 188.202621 157.553464 " transform="matrix(1.00002,0,0,-1.00008,-10.737635,159.405912)"/>
</g>
<path style="fill:none;stroke-width:0.79701;stroke-linecap:butt;stroke-linejoin:miter;stroke:rgb(100%,0%,0%);stroke-opacity:1;stroke-miterlimit:10;" d="M 12.143642 3.843105 L 12.143642 157.553464 " transform="matrix(1.00002,0,0,-1.00008,-10.737635,159.405912)"/>
<g clip-path="url(#clip2)" clip-rule="nonzero">
<path style="fill:none;stroke-width:0.79701;stroke-linecap:butt;stroke-linejoin:miter;stroke:rgb(0%,0%,0%);stroke-opacity:1;stroke-miterlimit:10;" d="M 194.272812 142.1836 L 133.563088 142.1836 L 60.709077 80.696332 M 194.272812 111.439966 L 60.709077 111.439966 L 60.709077 80.696332 M 194.272812 73.013353 L 37.943907 73.013353 M 37.943907 73.013353 L 60.709077 80.696332 M 194.272812 26.899854 L 110.797919 26.899854 L 60.709077 80.696332 " transform="matrix(1.00002,0,0,-1.00008,-10.737635,159.405912)"/>
</g>
<path style="fill-rule:nonzero;fill:rgb(100%,0%,0%);fill-opacity:1;stroke-width:0.3985;stroke-linecap:butt;stroke-linejoin:miter;stroke:rgb(100%,0%,0%);stroke-opacity:1;stroke-miterlimit:10;" d="M 62.205141 80.696332 C 62.205141 81.524391 61.537185 82.192306 60.709077 82.192306 C 59.884875 82.192306 59.216919 81.524391 59.216919 80.696332 C 59.216919 79.872179 59.884875 79.204264 60.709077 79.204264 C 61.537185 79.204264 62.205141 79.872179 62.205141 80.696332 Z M 62.205141 80.696332 " transform="matrix(1.00002,0,0,-1.00008,-10.737635,159.405912)"/>
</g>
</svg>
