<?xml version="1.0" encoding="UTF-8"?>
<svg xmlns="http://www.w3.org/2000/svg" xmlns:xlink="http://www.w3.org/1999/xlink" width="122pt" height="122pt" viewBox="0 0 122 122" version="1.1">
<g id="surface1">
<path style="fill:none;stroke-width:0.3985;stroke-linecap:butt;stroke-linejoin:miter;stroke:rgb(0%,0%,0%);stroke-opacity:1;stroke-miterlimit:10;" d="M -59.128568 0.00163205 L 59.131144 0.00163205 " transform="matrix(1.00005,0,0,-1.00002,60.990899,60.728195)"/>
<path style="fill:none;stroke-width:0.3985;stroke-linecap:round;stroke-linejoin:round;stroke:rgb(0%,0%,0%);stroke-opacity:1;stroke-miterlimit:10;" d="M -2.071642 2.392851 C -1.692755 0.95538 -0.849047 0.279612 -0.00143324 -0.00163205 C -0.849047 -0.27897 -1.692755 -0.954738 -2.071642 -2.392209 " transform="matrix(-1.00005,0,0,1.00002,1.658723,60.728195)"/>
<path style="fill:none;stroke-width:0.3985;stroke-linecap:round;stroke-linejoin:round;stroke:rgb(0%,0%,0%);stroke-opacity:1;stroke-miterlimit:10;" d="M -2.072972 2.392209 C -1.694085 0.954738 -0.850377 0.27897 0.00114283 0.00163205 C -0.850377 -0.279612 -1.694085 -0.95538 -2.072972 -2.392851 " transform="matrix(1.00005,0,0,-1.00002,120.323076,60.728195)"/>
<path style="fill:none;stroke-width:0.3985;stroke-linecap:butt;stroke-linejoin:miter;stroke:rgb(0%,0%,0%);stroke-opacity:1;stroke-miterlimit:10;" d="M 0.00128804 -59.129998 L 0.00128804 59.129356 " transform="matrix(1.00005,0,0,-1.00002,60.990899,60.728195)"/>
<path style="fill:none;stroke-width:0.3985;stroke-linecap:round;stroke-linejoin:round;stroke:rgb(0%,0%,0%);stroke-opacity:1;stroke-miterlimit:10;" d="M -2.074175 2.391794 C -1.695276 0.958271 -0.851543 0.278618 0.00000258575 0.00128804 C -0.851543 -0.279948 -1.695276 -0.955695 -2.074175 -2.389217 " transform="matrix(0,1.00002,1.00005,0,60.990899,120.058591)"/>
<path style="fill:none;stroke-width:0.3985;stroke-linecap:round;stroke-linejoin:round;stroke:rgb(0%,0%,0%);stroke-opacity:1;stroke-miterlimit:10;" d="M -2.070911 2.389217 C -1.692012 0.955695 -0.848279 0.279948 -0.000639491 -0.00128804 C -0.848279 -0.278618 -1.692012 -0.958271 -2.070911 -2.391794 " transform="matrix(0,-1.00002,-1.00005,0,60.990899,1.397798)"/>
<path style="fill:none;stroke-width:0.79701;stroke-linecap:butt;stroke-linejoin:miter;stroke:rgb(0%,0%,100%);stroke-opacity:1;stroke-miterlimit:10;" d="M 0.00128804 0.00163205 L 6.364251 0.251627 L 12.606127 0.997706 L 18.621451 2.216432 L 24.28523 3.868742 L 29.499813 5.903858 L 34.171455 8.255373 L 38.222033 10.852978 L 41.589052 13.602923 L 44.210015 16.423179 L 46.061485 19.212185 L 47.120026 21.876195 L 47.385638 24.321458 L 46.881757 26.454228 L 45.639631 28.184662 L 43.71004 29.442449 L 41.15548 30.149467 L 38.054073 30.258839 L 34.495657 29.7276 L 30.577884 28.532311 L 26.3945 26.653443 L 22.054873 24.110525 L 17.672279 20.919182 L 13.344371 17.12629 L 9.168798 12.77872 L 5.243213 7.950692 L 1.649643 2.732046 L -1.537698 -2.791281 L -4.264124 -8.517729 L -6.482763 -14.330113 L -8.15846 -20.119059 L -9.279498 -25.763478 L -9.849782 -31.157901 L -9.888842 -36.185144 L -9.420116 -40.743647 L -8.498287 -44.739661 L -7.17804 -48.083344 L -5.533591 -50.716104 L -3.639155 -52.575441 L -1.588476 -53.618389 L 0.532511 -53.825416 L 2.626157 -53.196523 L 4.610433 -51.743427 L 6.391594 -49.493472 L 7.883706 -46.497438 L 9.012556 -42.817824 L 9.71174 -38.528847 L 9.934385 -33.724256 L 9.633619 -28.501704 L 8.789911 -22.966659 L 7.387637 -17.232398 L 5.438516 -11.420015 L 2.962077 -5.63888 L 0.00128804 0.00163205 L -3.39698 5.384337 L -7.170228 10.419392 L -11.228619 15.016957 L -15.494031 19.095 L -19.864906 22.59493 L -24.235781 25.465967 L -28.509005 27.67686 L -32.571302 29.211985 L -36.325021 30.075249 L -39.668603 30.282276 L -42.504399 29.868222 L -44.754287 28.876055 L -46.347957 27.376085 L -47.230725 25.430811 L -47.351813 23.133982 L -46.687784 20.567627 L -45.230825 17.825494 L -42.992656 15.009144 L -39.996712 12.212325 L -36.282054 9.528785 L -31.911179 7.048366 L -26.954395 4.845285 L -21.501543 2.99376 L -15.654179 1.552382 L -9.509955 0.564121 L -3.189959 0.0641308 L 3.188629 0.0641308 L 9.508625 0.564121 L 15.648943 1.552382 L 21.500213 2.99376 L 26.953065 4.845285 L 31.905943 7.04446 L 36.280724 9.528785 L 39.995382 12.212325 L 42.995232 15.009144 L 45.233401 17.825494 L 46.686454 20.563721 L 47.350483 23.133982 L 47.229395 25.430811 L 46.350533 27.372178 L 44.756863 28.876055 L 42.506975 29.868222 L 39.667273 30.282276 L 36.327597 30.075249 L 32.573878 29.211985 L 28.511581 27.67686 L 24.238357 25.465967 L 19.867482 22.59493 L 15.496607 19.095 L 11.231195 15.016957 L 7.168898 10.423299 L 3.399556 5.388243 L 0.00128804 0.00163205 L -2.963407 -5.634974 L -5.439846 -11.416108 L -7.388967 -17.232398 L -8.787335 -22.966659 L -9.634949 -28.497798 L -9.935715 -33.72035 L -9.71307 -38.528847 L -9.013886 -42.817824 L -7.88113 -46.497438 L -6.392924 -49.493472 L -4.611763 -51.743427 L -2.627487 -53.196523 L -0.533841 -53.825416 L 1.587146 -53.618389 L 3.641731 -52.575441 L 5.532261 -50.716104 L 7.176711 -48.08725 L 8.496957 -44.739661 L 9.418786 -40.747553 L 9.887512 -36.185144 L 9.852358 -31.157901 L 9.282074 -25.767384 L 8.15713 -20.119059 L 6.481433 -14.330113 L 4.2667 -8.517729 L 1.540274 -2.795187 L -1.647067 2.72814 L -5.240637 7.950692 L -9.166222 12.77872 L -13.341795 17.122383 L -17.669703 20.919182 L -22.056203 24.110525 L -26.391924 26.653443 L -30.575308 28.532311 L -34.493081 29.7276 L -38.051497 30.258839 L -41.152904 30.149467 L -43.71137 29.438543 L -45.640961 28.184662 L -46.883086 26.454228 L -47.386968 24.321458 L -47.11745 21.876195 L -46.058909 19.212185 L -44.211345 16.423179 L -41.590382 13.602923 L -38.223363 10.852978 L -34.176691 8.259279 L -29.501143 5.907764 L -24.28656 3.872648 L -18.622781 2.216432 L -12.611363 0.997706 L -6.365581 0.251627 L -0.00261802 0.00163205 " transform="matrix(1.00005,0,0,-1.00002,60.990899,60.728195)"/>
</g>
</svg>
