<?xml version="1.0" encoding="UTF-8"?>
<svg xmlns="http://www.w3.org/2000/svg" xmlns:xlink="http://www.w3.org/1999/xlink" width="122pt" height="122pt" viewBox="0 0 122 122" version="1.1">
<g id="surface1">
<path style="fill:none;stroke-width:0.3985;stroke-linecap:butt;stroke-linejoin:miter;stroke:rgb(0%,0%,0%);stroke-opacity:1;stroke-miterlimit:10;" d="M -59.128568 0.00163205 L 59.131144 0.00163205 " transform="matrix(1.00005,0,0,-1.00002,60.990899,60.728195)"/>
<path style="fill:none;stroke-width:0.3985;stroke-linecap:round;stroke-linejoin:round;stroke:rgb(0%,0%,0%);stroke-opacity:1;stroke-miterlimit:10;" d="M -2.071642 2.392851 C -1.692755 0.95538 -0.849047 0.279612 -0.00143324 -0.00163205 C -0.849047 -0.27897 -1.692755 -0.954738 -2.071642 -2.392209 " transform="matrix(-1.00005,0,0,1.00002,1.658723,60.728195)"/>
<path style="fill:none;stroke-width:0.3985;stroke-linecap:round;stroke-linejoin:round;stroke:rgb(0%,0%,0%);stroke-opacity:1;stroke-miterlimit:10;" d="M -2.072972 2.392209 C -1.694085 0.954738 -0.850377 0.27897 0.00114283 0.00163205 C -0.850377 -0.279612 -1.694085 -0.95538 -2.072972 -2.392851 " transform="matrix(1.00005,0,0,-1.00002,120.323076,60.728195)"/>
<path style="fill:none;stroke-width:0.3985;stroke-linecap:butt;stroke-linejoin:miter;stroke:rgb(0%,0%,0%);stroke-opacity:1;stroke-miterlimit:10;" d="M 0.00128804 -59.129998 L 0.00128804 59.129356 " transform="matrix(1.00005,0,0,-1.00002,60.990899,60.728195)"/>
<path style="fill:none;stroke-width:0.3985;stroke-linecap:round;stroke-linejoin:round;stroke:rgb(0%,0%,0%);stroke-opacity:1;stroke-miterlimit:10;" d="M -2.074175 2.391794 C -1.695276 0.958271 -0.851543 0.278618 0.00000258575 0.00128804 C -0.851543 -0.279948 -1.695276 -0.955695 -2.074175 -2.389217 " transform="matrix(0,1.00002,1.00005,0,60.990899,120.058591)"/>
<path style="fill:none;stroke-width:0.3985;stroke-linecap:round;stroke-linejoin:round;stroke:rgb(0%,0%,0%);stroke-opacity:1;stroke-miterlimit:10;" d="M -2.070911 2.389217 C -1.692012 0.955695 -0.848279 0.279948 -0.000639491 -0.00128804 C -0.848279 -0.278618 -1.692012 -0.958271 -2.070911 -2.391794 " transform="matrix(0,-1.00002,-1.00005,0,60.990899,1.397798)"/>
<path style="fill:none;stroke-width:0.79701;stroke-linecap:butt;stroke-linejoin:miter;stroke:rgb(0%,0%,100%);stroke-opacity:1;stroke-miterlimit:10;" d="M 53.85797 0.00163205 L 53.69001 1.884407 L 53.193941 3.739839 L 52.373669 5.532771 L 51.237007 7.239769 L 49.795673 8.82958 L 48.061385 10.274864 L 46.057579 11.548276 L 43.795973 12.630286 L 41.307816 13.501362 L 38.612639 14.138068 L 35.737782 14.528685 L 32.714496 14.657589 L 29.570122 14.513061 L 26.335909 14.0951 L 23.043105 13.395895 L 19.722958 12.41154 L 16.41453 11.149847 L 13.13735 9.614721 L 9.930479 7.817882 L 6.825166 5.771048 L 3.84094 3.489844 L 1.016862 0.989894 L -1.631443 -1.705365 L -4.080539 -4.572495 L -6.30699 -7.58806 L -8.291266 -10.724716 L -10.025554 -13.951214 L -11.490325 -17.236304 L -12.681672 -20.552644 L -13.595688 -23.868984 L -14.224563 -27.150169 L -14.576108 -30.364948 L -14.650323 -33.482073 L -14.45502 -36.470295 L -14.001918 -39.302269 L -13.302734 -41.950654 L -12.380905 -44.384199 L -11.248149 -46.579468 L -9.927903 -48.520835 L -8.443602 -50.180958 L -6.826496 -51.548118 L -5.092207 -52.606691 L -3.279798 -53.348863 L -1.41661 -53.762918 L 0.473921 -53.844947 L 2.352733 -53.594952 L 4.196391 -53.016839 L 5.96974 -52.118419 L 7.649343 -50.9036 L 9.203953 -49.388005 L 10.610133 -47.583354 L 11.836634 -45.513083 L 12.867832 -43.192817 L 13.684198 -40.649899 L 14.258388 -37.907766 L 14.58259 -34.993762 L 14.645087 -31.939135 L 14.43416 -28.767324 L 13.945903 -25.517389 L 13.172504 -22.212767 L 12.121776 -18.896427 L 10.789811 -15.5879 L 9.192235 -12.330153 L 7.329047 -9.142716 L 5.219777 -6.064653 L 2.883956 -3.119399 L 0.333303 -0.334299 L -2.408748 2.263306 L -5.314852 4.657789 L -8.361575 6.825714 L -11.525479 8.747551 L -14.767505 10.415486 L -18.064215 11.813896 L -21.384361 12.938873 L -24.69279 13.7787 L -27.962158 14.341189 L -31.153404 14.618527 L -34.243093 14.62634 L -37.192165 14.364626 L -39.984994 13.849011 L -42.578614 13.09512 L -44.953495 12.114671 L -47.090107 10.935007 L -48.965014 9.571753 L -50.550872 8.052252 L -51.843776 6.399942 L -52.824196 4.64607 L -53.484319 2.817982 L -53.816334 0.943019 L -53.816334 -0.943662 L -53.484319 -2.818624 L -52.824196 -4.646712 L -51.843776 -6.400584 L -50.554778 -8.052894 L -48.965014 -9.572395 L -47.090107 -10.931743 L -44.957402 -12.115313 L -42.578614 -13.095762 L -39.984994 -13.849653 L -37.196071 -14.365268 L -34.243093 -14.626982 L -31.15731 -14.619169 L -27.962158 -14.337925 L -24.696696 -13.779342 L -21.384361 -12.939515 L -18.068121 -11.814538 L -14.767505 -10.416128 L -11.525479 -8.748193 L -8.365481 -6.826356 L -5.314852 -4.658431 L -2.408748 -2.263948 L 0.333303 0.333657 L 2.88005 3.118757 L 5.219777 6.064011 L 7.329047 9.142074 L 9.188329 12.32951 L 10.789811 15.587258 L 12.121776 18.895785 L 13.172504 22.212125 L 13.945903 25.516747 L 14.43416 28.766682 L 14.645087 31.938493 L 14.586496 34.99312 L 14.258388 37.907124 L 13.684198 40.653163 L 12.867832 43.192174 L 11.84054 45.512441 L 10.610133 47.582712 L 9.203953 49.387363 L 7.649343 50.902958 L 5.96974 52.117777 L 4.196391 53.016197 L 2.352733 53.59431 L 0.473921 53.844305 L -1.412704 53.762276 L -3.279798 53.348221 L -5.092207 52.606049 L -6.82259 51.547476 L -8.443602 50.184222 L -9.927903 48.520193 L -11.248149 46.582732 L -12.380905 44.383557 L -13.30664 41.950012 L -14.001918 39.301627 L -14.45502 36.469653 L -14.650323 33.485337 L -14.576108 30.364306 L -14.224563 27.149527 L -13.595688 23.872248 L -12.681672 20.555908 L -11.490325 17.239569 L -10.025554 13.950572 L -8.291266 10.724074 L -6.30699 7.591324 L -4.080539 4.575759 L -1.631443 1.704723 L 1.012956 -0.986629 L 3.84094 -3.486579 L 6.82126 -5.77169 L 9.930479 -7.818524 L 13.13735 -9.615363 L 16.410624 -11.150489 L 19.722958 -12.412182 L 23.043105 -13.392631 L 26.335909 -14.095742 L 29.570122 -14.513703 L 32.71059 -14.658231 L 35.737782 -14.529327 L 38.612639 -14.13871 L 41.307816 -13.502004 L 43.795973 -12.630928 L 46.053673 -11.548918 L 48.061385 -10.275506 L 49.795673 -8.830223 L 51.237007 -7.240411 L 52.373669 -5.533414 L 53.193941 -3.740481 L 53.69001 -1.885049 L 53.85797 0.00163205 " transform="matrix(1.00005,0,0,-1.00002,60.990899,60.728195)"/>
</g>
</svg>
