<?xml version="1.0" encoding="UTF-8"?>
<svg xmlns="http://www.w3.org/2000/svg" xmlns:xlink="http://www.w3.org/1999/xlink" width="122pt" height="122pt" viewBox="0 0 122 122" version="1.1">
<g id="surface1">
<path style="fill:none;stroke-width:0.3985;stroke-linecap:butt;stroke-linejoin:miter;stroke:rgb(0%,0%,0%);stroke-opacity:1;stroke-miterlimit:10;" d="M -59.128568 0.00163205 L 59.131144 0.00163205 " transform="matrix(1.00005,0,0,-1.00002,60.990899,60.728195)"/>
<path style="fill:none;stroke-width:0.3985;stroke-linecap:round;stroke-linejoin:round;stroke:rgb(0%,0%,0%);stroke-opacity:1;stroke-miterlimit:10;" d="M -2.071642 2.392851 C -1.692755 0.95538 -0.849047 0.279612 -0.00143324 -0.00163205 C -0.849047 -0.27897 -1.692755 -0.954738 -2.071642 -2.392209 " transform="matrix(-1.00005,0,0,1.00002,1.658723,60.728195)"/>
<path style="fill:none;stroke-width:0.3985;stroke-linecap:round;stroke-linejoin:round;stroke:rgb(0%,0%,0%);stroke-opacity:1;stroke-miterlimit:10;" d="M -2.072972 2.392209 C -1.694085 0.954738 -0.850377 0.27897 0.00114283 0.00163205 C -0.850377 -0.279612 -1.694085 -0.95538 -2.072972 -2.392851 " transform="matrix(1.00005,0,0,-1.00002,120.323076,60.728195)"/>
<path style="fill:none;stroke-width:0.3985;stroke-linecap:butt;stroke-linejoin:miter;stroke:rgb(0%,0%,0%);stroke-opacity:1;stroke-miterlimit:10;" d="M 0.00128804 -59.129998 L 0.00128804 59.129356 " transform="matrix(1.00005,0,0,-1.00002,60.990899,60.728195)"/>
<path style="fill:none;stroke-width:0.3985;stroke-linecap:round;stroke-linejoin:round;stroke:rgb(0%,0%,0%);stroke-opacity:1;stroke-miterlimit:10;" d="M -2.074175 2.391794 C -1.695276 0.958271 -0.851543 0.278618 0.00000258575 0.00128804 C -0.851543 -0.279948 -1.695276 -0.955695 -2.074175 -2.389217 " transform="matrix(0,1.00002,1.00005,0,60.990899,120.058591)"/>
<path style="fill:none;stroke-width:0.3985;stroke-linecap:round;stroke-linejoin:round;stroke:rgb(0%,0%,0%);stroke-opacity:1;stroke-miterlimit:10;" d="M -2.070911 2.389217 C -1.692012 0.955695 -0.848279 0.279948 -0.000639491 -0.00128804 C -0.848279 -0.278618 -1.692012 -0.958271 -2.070911 -2.391794 " transform="matrix(0,-1.00002,-1.00005,0,60.990899,1.397798)"/>
<path style="fill:none;stroke-width:0.79701;stroke-linecap:butt;stroke-linejoin:miter;stroke:rgb(0%,0%,100%);stroke-opacity:1;stroke-miterlimit:10;" d="M 53.85797 0.00163205 L 53.436116 2.110965 L 52.182273 4.130456 L 50.131594 5.970263 L 47.315329 7.540544 L 43.799879 8.767082 L 39.651649 9.579565 L 34.96829 9.927215 L 29.83964 9.759249 L 24.371163 9.052232 L 18.680042 7.790539 L 12.875644 5.978075 L 7.071247 3.630466 L 1.387937 0.782866 L -4.068821 -2.510036 L -9.201377 -6.197463 L -13.912079 -10.193477 L -18.126712 -14.412142 L -21.774967 -18.767524 L -24.809971 -23.150249 L -27.184853 -27.45485 L -28.891799 -31.583674 L -29.922997 -35.423441 L -30.290166 -38.876497 L -30.024554 -41.849093 L -29.176941 -44.251389 L -27.794197 -46.016979 L -25.954445 -47.079458 L -23.735806 -47.391951 L -21.228119 -46.927117 L -18.521223 -45.66933 L -15.716676 -43.626402 L -12.904317 -40.813958 L -10.185703 -37.274966 L -7.642861 -33.060207 L -5.365631 -28.243897 L -3.420416 -22.908066 L -1.869712 -17.146462 L -0.768205 -11.068459 L -0.143236 -4.779522 L -0.0143362 1.59535 L -0.393223 7.938973 L -1.260368 14.138068 L -2.592332 20.071543 L -4.346151 25.633932 L -6.467139 30.719768 L -8.884986 35.247021 L -11.525479 39.129756 L -14.30659 42.317192 L -17.126762 44.746831 L -19.892249 46.399142 L -22.509305 47.258499 L -24.888092 47.332717 L -26.927053 46.641324 L -28.54416 45.219478 L -29.669103 43.12577 L -30.235481 40.426605 L -30.188609 37.204013 L -29.493331 33.547836 L -28.126212 29.551822 L -26.079439 25.321438 L -23.372543 20.96215 L -20.025054 16.579425 L -16.087751 12.282636 L -11.615319 8.161625 L -6.681972 4.31014 L -1.373643 0.81021 L 4.208109 -2.267854 L 9.965634 -4.869364 L 15.781749 -6.951354 L 21.54318 -8.490386 L 27.140556 -9.474741 L 32.45279 -9.908326 L 37.370513 -9.814578 L 41.796073 -9.228652 L 45.639631 -8.201329 L 48.815254 -6.795107 L 51.256538 -5.080298 L 52.912705 -3.13893 L 53.748601 -1.060847 L 53.748601 1.060205 L 52.912705 3.138288 L 51.256538 5.079655 L 48.815254 6.794465 L 45.639631 8.200687 L 41.799979 9.22801 L 37.374419 9.813936 L 32.45279 9.91159 L 27.140556 9.474099 L 21.547086 8.489744 L 15.785655 6.950712 L 9.96954 4.868722 L 4.212015 2.267212 L -1.369737 -0.810852 L -6.678065 -4.310782 L -11.611413 -8.158361 L -16.087751 -12.279372 L -20.025054 -16.580068 L -23.372543 -20.958886 L -26.079439 -25.318174 L -28.122306 -29.548558 L -29.493331 -33.544572 L -30.188609 -37.204655 L -30.235481 -40.427247 L -29.669103 -43.126412 L -28.548066 -45.22012 L -26.927053 -46.641966 L -24.888092 -47.333359 L -22.513211 -47.259141 L -19.892249 -46.399784 L -17.126762 -44.747473 L -14.30659 -42.313928 L -11.529385 -39.130398 L -8.884986 -35.247663 L -6.467139 -30.724316 L -4.346151 -25.634574 L -2.592332 -20.072185 L -1.260368 -14.13871 L -0.393223 -7.943522 L -0.0143362 -1.595992 L -0.143236 4.77888 L -0.764299 11.063911 L -1.869712 17.141914 L -3.41651 22.903518 L -5.361725 28.243255 L -7.642861 33.059565 L -10.181797 37.274324 L -12.904317 40.813316 L -15.716676 43.62576 L -18.521223 45.672594 L -21.228119 46.926475 L -23.735806 47.391309 L -25.954445 47.078816 L -27.794197 46.016337 L -29.173034 44.254653 L -30.024554 41.848451 L -30.290166 38.875855 L -29.922997 35.422799 L -28.891799 31.583032 L -27.188759 27.458114 L -24.809971 23.153513 L -21.778873 18.766882 L -18.130618 14.415406 L -13.915985 10.192834 L -9.201377 6.196821 L -4.068821 2.513301 L 1.387937 -0.783508 L 7.071247 -3.627202 L 12.871738 -5.974811 L 18.676136 -7.791181 L 24.371163 -9.052874 L 29.835734 -9.759891 L 34.964384 -9.927857 L 39.651649 -9.580208 L 43.795973 -8.767724 L 47.315329 -7.541186 L 50.127688 -5.970905 L 52.182273 -4.135004 L 53.43221 -2.111607 L 53.85797 -0.00227412 " transform="matrix(1.00005,0,0,-1.00002,60.990899,60.728195)"/>
</g>
</svg>
