<?xml version="1.0" encoding="UTF-8"?>
<svg xmlns="http://www.w3.org/2000/svg" xmlns:xlink="http://www.w3.org/1999/xlink" width="134pt" height="77pt" viewBox="0 0 134 77" version="1.1">
<g id="surface1">
<path style="fill-rule:nonzero;fill:rgb(84.999084%,84.999084%,100%);fill-opacity:1;stroke-width:0.79701;stroke-linecap:butt;stroke-linejoin:miter;stroke:rgb(0%,0%,100%);stroke-opacity:1;stroke-miterlimit:10;" d="M 0.00146839 36.284421 C 0.00146839 36.284421 4.09485 38.057716 5.668927 38.745161 C 7.243004 39.432606 9.766215 40.256759 11.340292 41.23715 C 12.910463 42.221446 15.433673 44.451736 17.00775 45.818814 C 18.581827 47.185892 21.105038 49.57242 22.675209 51.080112 C 24.249286 52.587804 26.772496 55.134475 28.346574 56.692944 C 29.920651 58.251413 32.443861 60.798085 34.014032 62.305777 C 35.588109 63.813469 38.11132 66.199996 39.685397 67.567074 C 41.259474 68.930247 43.782684 71.008205 45.352856 72.148739 C 46.926933 73.285367 49.450143 74.933673 51.02422 75.777355 C 52.598297 76.617132 55.117602 77.722512 56.691679 78.21466 C 58.265756 78.702902 60.788966 79.202862 62.363043 79.312229 C 63.93712 79.421595 66.456425 79.284887 68.030502 79.007565 C 69.604579 78.730244 72.12779 77.96468 73.701867 77.316295 C 75.272038 76.667909 77.795248 75.312549 79.369325 74.336064 C 80.943402 73.355674 83.466613 71.512071 85.04069 70.266077 C 86.610861 69.016177 89.134071 66.781981 90.708149 65.344596 C 92.282226 63.903305 94.805436 61.430847 96.379513 59.891907 C 97.949684 58.349062 100.472895 55.790673 102.046972 54.243922 C 103.621049 52.69717 106.144259 50.189558 107.71443 48.732644 C 109.288508 47.275729 111.811718 45.010285 113.385795 43.733044 C 114.959872 42.455802 117.483083 40.545799 119.053254 39.526349 C 120.627331 38.506899 123.150541 37.475732 124.724618 36.397693 C 126.298695 35.315748 129.606991 33.651819 130.392077 31.749627 C 131.181068 29.84353 131.181068 24.652539 130.392077 22.676134 C 129.606991 20.703636 126.298695 18.598336 124.724618 17.516391 C 123.150541 16.438352 120.627331 15.59467 119.053254 14.899413 C 117.483083 14.20025 114.959872 13.122211 113.385795 12.493355 C 111.811718 11.868405 109.288508 10.919263 107.71443 10.380243 C 106.144259 9.837318 103.621049 9.040507 102.046972 8.599136 C 100.472895 8.161671 97.949684 7.536721 96.379513 7.212528 C 94.805436 6.888335 92.282226 6.454776 90.708149 6.251667 C 89.134071 6.048558 86.610861 5.822014 85.04069 5.747801 C 83.466613 5.673588 80.943402 5.657965 79.369325 5.712648 C 77.795248 5.767331 75.272038 5.962628 73.701867 6.146207 C 72.12779 6.329786 69.604579 6.732098 68.030502 7.040667 C 66.456425 7.34533 63.93712 7.942938 62.363043 8.364779 C 60.788966 8.786621 58.265756 9.563902 56.691679 10.087298 C 55.117602 10.614599 52.598297 11.540307 51.02422 12.153539 C 49.450143 12.770677 46.926933 13.836998 45.352856 14.524443 C 43.782684 15.211888 41.259474 16.371951 39.685397 17.110174 C 38.11132 17.848396 35.588109 19.082672 34.014032 19.852142 C 32.443861 20.625517 29.920651 21.894947 28.346574 22.676134 C 26.772496 23.461228 24.249286 24.726752 22.675209 25.500127 C 21.105038 26.273503 18.581827 27.503873 17.00775 28.246001 C 15.433673 28.984224 12.910463 30.171629 11.340292 30.827826 C 9.766215 31.48793 7.243004 32.319894 5.668927 32.995621 C 4.09485 33.675255 0.786554 35.261065 0.00146839 35.71806 C -0.787523 36.171149 0.00146839 36.284421 0.00146839 36.284421 " transform="matrix(1.00009,0,0,-1.00008,1.44775,80.826386)"/>
</g>
</svg>
