<?xml version="1.0" encoding="UTF-8"?>
<svg xmlns="http://www.w3.org/2000/svg" xmlns:xlink="http://www.w3.org/1999/xlink" width="122pt" height="122pt" viewBox="0 0 122 122" version="1.1">
<g id="surface1">
<path style="fill:none;stroke-width:0.3985;stroke-linecap:butt;stroke-linejoin:miter;stroke:rgb(0%,0%,0%);stroke-opacity:1;stroke-miterlimit:10;" d="M -59.128568 0.00163205 L 59.131144 0.00163205 " transform="matrix(1.00005,0,0,-1.00002,60.990899,60.728195)"/>
<path style="fill:none;stroke-width:0.3985;stroke-linecap:round;stroke-linejoin:round;stroke:rgb(0%,0%,0%);stroke-opacity:1;stroke-miterlimit:10;" d="M -2.071642 2.392851 C -1.692755 0.95538 -0.849047 0.279612 -0.00143324 -0.00163205 C -0.849047 -0.27897 -1.692755 -0.954738 -2.071642 -2.392209 " transform="matrix(-1.00005,0,0,1.00002,1.658723,60.728195)"/>
<path style="fill:none;stroke-width:0.3985;stroke-linecap:round;stroke-linejoin:round;stroke:rgb(0%,0%,0%);stroke-opacity:1;stroke-miterlimit:10;" d="M -2.072972 2.392209 C -1.694085 0.954738 -0.850377 0.27897 0.00114283 0.00163205 C -0.850377 -0.279612 -1.694085 -0.95538 -2.072972 -2.392851 " transform="matrix(1.00005,0,0,-1.00002,120.323076,60.728195)"/>
<path style="fill:none;stroke-width:0.3985;stroke-linecap:butt;stroke-linejoin:miter;stroke:rgb(0%,0%,0%);stroke-opacity:1;stroke-miterlimit:10;" d="M 0.00128804 -59.129998 L 0.00128804 59.129356 " transform="matrix(1.00005,0,0,-1.00002,60.990899,60.728195)"/>
<path style="fill:none;stroke-width:0.3985;stroke-linecap:round;stroke-linejoin:round;stroke:rgb(0%,0%,0%);stroke-opacity:1;stroke-miterlimit:10;" d="M -2.074175 2.391794 C -1.695276 0.958271 -0.851543 0.278618 0.00000258575 0.00128804 C -0.851543 -0.279948 -1.695276 -0.955695 -2.074175 -2.389217 " transform="matrix(0,1.00002,1.00005,0,60.990899,120.058591)"/>
<path style="fill:none;stroke-width:0.3985;stroke-linecap:round;stroke-linejoin:round;stroke:rgb(0%,0%,0%);stroke-opacity:1;stroke-miterlimit:10;" d="M -2.070911 2.389217 C -1.692012 0.955695 -0.848279 0.279948 -0.000639491 -0.00128804 C -0.848279 -0.278618 -1.692012 -0.958271 -2.070911 -2.391794 " transform="matrix(0,-1.00002,-1.00005,0,60.990899,1.397798)"/>
<path style="fill:none;stroke-width:0.79701;stroke-linecap:butt;stroke-linejoin:miter;stroke:rgb(0%,0%,100%);stroke-opacity:1;stroke-miterlimit:10;" d="M 53.85797 0.00163205 L 53.72907 3.388283 L 53.361901 6.755403 L 52.744745 10.079555 L 51.889319 13.349021 L 50.803435 16.54427 L 49.487095 19.634052 L 47.952015 22.618367 L 46.213821 25.465967 L 44.276418 28.169037 L 42.15543 30.708049 L 39.866482 33.075189 L 37.425198 35.250927 L 34.847202 37.231356 L 32.148118 38.996946 L 29.347477 40.551602 L 26.460903 41.883607 L 23.507925 42.981241 L 20.515887 43.856224 L 17.488695 44.489024 L 14.461503 44.895265 L 11.442122 45.067137 L 8.45399 45.008544 L 5.520543 44.731206 L 2.649593 44.231216 L -0.135424 43.528105 L -2.82279 42.621873 L -5.389067 41.528145 L -7.826446 40.258639 L -10.1193 38.821168 L -12.255912 37.239169 L -14.220657 35.516547 L -16.013536 33.680646 L -17.622831 31.739279 L -19.036823 29.715882 L -20.255512 27.622173 L -21.274992 25.481591 L -22.095263 23.30976 L -22.71242 21.12621 L -23.130368 18.946566 L -23.353013 16.790359 L -23.388167 14.673214 L -23.231925 12.614661 L -22.899911 10.62642 L -22.399936 8.724114 L -21.743718 6.927275 L -20.935165 5.247621 L -19.993806 3.692964 L -18.935265 2.275024 L -17.771261 1.009424 L -16.513511 -0.103835 L -15.181547 -1.053034 L -13.790991 -1.834269 L -12.357469 -2.443632 L -10.900511 -2.877217 L -9.43574 -3.13893 L -7.982688 -3.224866 L -6.553072 -3.13893 L -5.166422 -2.888935 L -3.84227 -2.478787 L -2.588426 -1.912392 L -1.428328 -1.197563 L -0.365881 -0.349923 L 0.575478 0.622713 L 1.387937 1.708629 L 2.067591 2.896105 L 2.594908 4.165611 L 2.965984 5.509334 L 3.176911 6.903838 L 3.219877 8.341309 L 3.090977 9.802217 L 2.786305 11.263126 L 2.30586 12.716222 L 1.653549 14.141974 L 0.829372 15.520853 L -0.15886 16.833327 L -1.311146 18.071583 L -2.615769 19.212185 L -4.068821 20.243415 L -5.654679 21.149647 L -7.365531 21.919162 L -9.189659 22.540244 L -11.115344 23.001172 L -13.123056 23.286323 L -15.197171 23.399602 L -17.325971 23.317572 L -19.489925 23.04414 L -21.673409 22.579305 L -23.856894 21.91135 L -26.020848 21.040274 L -28.149648 19.969983 L -30.227669 18.700477 L -32.231475 17.235662 L -34.149348 15.583352 L -35.957852 13.747451 L -37.645267 11.735772 L -39.195971 9.560035 L -40.590432 7.22805 L -41.816934 4.759349 L -42.867662 2.161745 L -43.723088 -0.549138 L -44.375399 -3.357676 L -44.82069 -6.248243 L -45.043335 -9.197403 L -45.047241 -12.197343 L -44.816784 -15.216814 L -44.351963 -18.248003 L -43.656685 -21.267474 L -42.73095 -24.251789 L -41.570852 -27.18923 L -40.184203 -30.056361 L -38.574908 -32.833649 L -36.754687 -35.501564 L -34.727444 -38.048388 L -32.500993 -40.45459 L -30.090957 -42.704545 L -27.509055 -44.774816 L -24.767005 -46.665403 L -21.884336 -48.35287 L -18.872768 -49.837215 L -15.751831 -51.098908 L -12.541054 -52.126232 L -9.256062 -52.923091 L -5.916385 -53.473861 L -2.541554 -53.782449 L 0.844996 -53.848853 L 4.231545 -53.657451 L 7.590752 -53.227772 L 10.903087 -52.552004 L 14.152924 -51.641866 L 17.324641 -50.493452 L 20.390894 -49.126292 L 23.339965 -47.53648 L 26.15623 -45.747453 L 28.816254 -43.759211 L 31.316129 -41.599098 L 33.636325 -39.27102 L 35.765125 -36.794507 L 37.69081 -34.181278 L 39.405568 -31.45477 L 40.905493 -28.634514 L 42.178867 -25.728322 L 43.221783 -22.763538 L 44.034243 -19.759691 L 44.612339 -16.736314 L 44.959978 -13.705125 L 45.073253 -10.693467 L 44.959978 -7.716964 L 44.627963 -4.795147 L 44.077209 -1.943642 L 43.319435 0.818022 L 42.366357 3.474219 L 41.225789 6.009324 L 39.913355 8.41162 L 38.436866 10.665481 L 36.81976 12.763096 L 35.069847 14.684932 L 33.202753 16.430991 L 31.241914 17.99346 L 29.199047 19.36062 L 27.093683 20.528565 L 24.941447 21.501202 L 22.765775 22.266812 L 20.578384 22.837113 L 18.402712 23.208199 L 16.258288 23.380071 L 14.152924 23.364446 L 12.110058 23.165231 L 10.141406 22.790239 L 8.2665 22.251187 L 6.497057 21.551982 L 4.844796 20.712155 L 3.325341 19.743425 L 1.942597 18.653603 L 0.716096 17.46222 L -0.354163 16.184902 L -1.264274 14.837273 L -2.002518 13.434957 L -2.568896 11.99358 L -2.959501 10.532671 L -3.174334 9.071763 L -3.221207 7.622573 L -3.092307 6.200727 L -2.803259 4.82966 L -2.350157 3.521093 L -1.744718 2.290649 L -0.998662 1.150047 L -0.1198 0.118817 L 0.884056 -0.791321 L 1.993376 -1.572555 L 3.204253 -2.213167 L 4.493251 -2.701439 L 5.852558 -3.03737 L 7.262644 -3.205335 L 8.703978 -3.201429 L 10.168748 -3.029557 L 11.629613 -2.681908 L 13.074853 -2.158481 L 14.488845 -1.463182 L 15.852058 -0.599918 L 17.148868 0.431311 L 18.363651 1.622693 L 19.480783 2.966417 L 20.480733 4.450762 L 21.355689 6.071823 L 22.090027 7.813976 L 22.672029 9.661595 L 23.086071 11.606869 L 23.332153 13.634172 L 23.39465 15.723974 L 23.269656 17.864556 L 22.949359 20.032481 L 22.429854 22.216032 L 21.71114 24.399582 L 20.789311 26.555788 L 19.672179 28.67684 L 18.355839 30.735392 L 16.84029 32.719728 L 15.141156 34.610315 L 13.262344 36.395435 L 11.207759 38.04384 L 8.993026 39.559435 L 6.625957 40.914876 L 4.122176 42.098446 L 1.493401 43.102333 L -1.240837 43.907004 L -4.072727 44.508554 L -6.978832 44.899172 L -9.943527 45.067137 L -12.947283 45.008544 L -15.974476 44.719488 L -19.001668 44.199967 L -22.017142 43.449982 L -24.98965 42.46172 L -27.911379 41.246901 L -30.758893 39.805523 L -33.508755 38.141494 L -36.153154 36.270438 L -38.664747 34.188448 L -41.031817 31.915056 L -43.234831 29.46198 L -45.26598 26.837033 L -47.109638 24.059745 L -48.746275 21.141834 L -50.171985 18.102833 L -51.375049 14.958364 L -52.347657 11.724054 L -53.081995 8.423339 L -53.574158 5.075749 L -53.824146 1.696911 L -53.824146 -1.693647 L -53.574158 -5.072485 L -53.081995 -8.423981 L -52.347657 -11.724696 L -51.375049 -14.9551 L -50.175891 -18.099568 L -48.746275 -21.13857 L -47.109638 -24.056481 L -45.26598 -26.833769 L -43.238737 -29.458716 L -41.035723 -31.915698 L -38.664747 -34.185184 L -36.153154 -36.267174 L -33.512661 -38.13823 L -30.758893 -39.802259 L -27.915285 -41.243637 L -24.993556 -42.462362 L -22.017142 -43.446718 L -19.005574 -44.200609 L -15.978382 -44.72013 L -12.951189 -45.009186 L -9.947433 -45.067779 L -6.982738 -44.895908 L -4.076633 -44.509196 L -1.244743 -43.907646 L 1.489495 -43.102975 L 4.11827 -42.099088 L 6.622051 -40.915518 L 8.98912 -39.560077 L 11.203853 -38.048388 L 13.258438 -36.396077 L 15.141156 -34.610957 L 16.84029 -32.724276 L 18.351933 -30.736034 L 19.668273 -28.677482 L 20.789311 -26.560337 L 21.71114 -24.400224 L 22.429854 -22.22058 L 22.949359 -20.03703 L 23.269656 -17.865198 L 23.39465 -15.724616 L 23.332153 -13.634814 L 23.089977 -11.611417 L 22.672029 -9.666143 L 22.090027 -7.814618 L 21.355689 -6.072465 L 20.484639 -4.451404 L 19.480783 -2.967059 L 18.367557 -1.623335 L 17.152774 -0.431953 L 15.855964 0.599276 L 14.488845 1.46254 L 13.078759 2.157839 L 11.629613 2.681266 L 10.168748 3.028915 L 8.707884 3.204693 L 7.262644 3.204693 L 5.852558 3.036728 L 4.497157 2.704703 L 3.204253 2.212525 L 1.997282 1.571913 L 0.884056 0.790679 L -0.115894 -0.119459 L -0.998662 -1.150689 L -1.744718 -2.287385 L -2.350157 -3.521735 L -2.803259 -4.830303 L -3.092307 -6.201369 L -3.221207 -7.619309 L -3.174334 -9.068499 L -2.959501 -10.533314 L -2.568896 -11.994222 L -2.002518 -13.431693 L -1.264274 -14.834009 L -0.358069 -16.185544 L 0.71219 -17.462862 L 1.942597 -18.654245 L 3.321435 -19.740161 L 4.844796 -20.712797 L 6.493151 -21.552624 L 8.262594 -22.247923 L 10.141406 -22.790881 L 12.106152 -23.165873 L 14.149018 -23.365088 L 16.254382 -23.380713 L 18.402712 -23.204935 L 20.578384 -22.837755 L 22.761869 -22.267454 L 24.941447 -21.501844 L 27.089777 -20.529207 L 29.195141 -19.361262 L 31.241914 -17.994102 L 33.202753 -16.435539 L 35.065941 -14.68948 L 36.81976 -12.763738 L 38.436866 -10.67003 L 39.913355 -8.416168 L 41.225789 -6.013873 L 42.366357 -3.474861 L 43.319435 -0.818664 L 44.077209 1.942999 L 44.627963 4.790599 L 44.959978 7.716322 L 45.073253 10.688918 L 44.959978 13.704483 L 44.612339 16.731766 L 44.034243 19.759049 L 43.225689 22.762896 L 42.178867 25.723774 L 40.909399 28.629966 L 39.409474 31.454128 L 37.694716 34.180636 L 35.765125 36.789959 L 33.636325 39.266472 L 31.320035 41.598456 L 28.82016 43.758569 L 26.15623 45.746811 L 23.343871 47.535838 L 20.3948 49.12565 L 17.328547 50.496716 L 14.15683 51.641224 L 10.906993 52.551362 L 7.590752 53.22713 L 4.231545 53.660715 L 0.848902 53.848211 L -2.537648 53.785713 L -5.912479 53.473219 L -9.252156 52.926355 L -12.537148 52.12559 L -15.751831 51.098266 L -18.868862 49.836573 L -21.88043 48.356134 L -24.763099 46.668667 L -27.505149 44.77808 L -30.090957 42.703903 L -32.497087 40.453948 L -34.723538 38.051652 L -36.754687 35.504828 L -38.574908 32.833007 L -40.184203 30.055718 L -41.570852 27.192494 L -42.727044 24.255053 L -43.656685 21.270738 L -44.355869 18.251267 L -44.812878 15.220078 L -45.047241 12.196701 L -45.043335 9.200667 L -44.82069 6.247601 L -44.379305 3.36094 L -43.723088 0.552402 L -42.867662 -2.158481 L -41.816934 -4.756085 L -40.594338 -7.228692 L -39.195971 -9.556771 L -37.645267 -11.736414 L -35.961758 -13.744187 L -34.149348 -15.580088 L -32.235381 -17.236304 L -30.231575 -18.701119 L -28.153554 -19.970625 L -26.020848 -21.040916 L -23.856894 -21.908086 L -21.673409 -22.576041 L -19.489925 -23.044782 L -17.325971 -23.318214 L -15.197171 -23.396337 L -13.123056 -23.286965 L -11.115344 -23.001814 L -9.193565 -22.540886 L -7.369437 -21.919805 L -5.658585 -21.154195 L -4.068821 -20.244057 L -2.615769 -19.212827 L -1.311146 -18.072225 L -0.15886 -16.833969 L 0.829372 -15.521495 L 1.653549 -14.142616 L 2.30586 -12.716864 L 2.786305 -11.267674 L 3.090977 -9.802859 L 3.219877 -8.341951 L 3.176911 -6.908386 L 2.96989 -5.509976 L 2.594908 -4.166253 L 2.067591 -2.896747 L 1.391844 -1.709271 L 0.575478 -0.623355 L -0.365881 0.349281 L -1.424422 1.196921 L -2.588426 1.91175 L -3.838364 2.478145 L -5.166422 2.888293 L -6.549166 3.142194 L -7.978782 3.224224 L -9.43574 3.138288 L -10.900511 2.876575 L -12.353563 2.442989 L -13.787085 1.833627 L -15.177641 1.052392 L -16.509605 0.103193 L -17.767355 -1.00616 L -18.935265 -2.275666 L -19.993806 -3.6897 L -20.935165 -5.244357 L -21.739812 -6.927917 L -22.399936 -8.724756 L -22.899911 -10.623155 L -23.231925 -12.611397 L -23.388167 -14.66995 L -23.356919 -16.787095 L -23.134274 -18.943302 L -22.716326 -21.126852 L -22.095263 -23.310402 L -21.278898 -25.482233 L -20.255512 -27.622815 L -19.036823 -29.712617 L -17.622831 -31.739921 L -16.017442 -33.677382 L -14.224563 -35.517189 L -12.255912 -37.235904 L -10.1193 -38.817904 L -7.826446 -40.255375 L -5.392974 -41.528787 L -2.82279 -42.622515 L -0.13933 -43.528747 L 2.645687 -44.231858 L 5.516637 -44.731848 L 8.45399 -45.009186 L 11.442122 -45.063873 L 14.457596 -44.895908 L 17.488695 -44.489666 L 20.511981 -43.856866 L 23.507925 -42.985789 L 26.456997 -41.884249 L 29.343571 -40.552244 L 32.144212 -39.001494 L 34.843296 -37.231998 L 37.421292 -35.251569 L 39.866482 -33.075831 L 42.15543 -30.708691 L 44.272512 -28.16968 L 46.209915 -25.466609 L 47.952015 -22.619009 L 49.483189 -19.6386 L 50.803435 -16.544912 L 51.889319 -13.35357 L 52.744745 -10.084104 L 53.361901 -6.756045 L 53.72907 -3.388925 L 53.85797 -0.00227412 " transform="matrix(1.00005,0,0,-1.00002,60.990899,60.728195)"/>
</g>
</svg>
