<?xml version="1.0" encoding="UTF-8"?>
<svg xmlns="http://www.w3.org/2000/svg" xmlns:xlink="http://www.w3.org/1999/xlink" width="122pt" height="122pt" viewBox="0 0 122 122" version="1.1">
<g id="surface1">
<path style="fill:none;stroke-width:0.3985;stroke-linecap:butt;stroke-linejoin:miter;stroke:rgb(0%,0%,0%);stroke-opacity:1;stroke-miterlimit:10;" d="M -59.128568 0.00163205 L 59.131144 0.00163205 " transform="matrix(1.00005,0,0,-1.00002,60.990899,60.728195)"/>
<path style="fill:none;stroke-width:0.3985;stroke-linecap:round;stroke-linejoin:round;stroke:rgb(0%,0%,0%);stroke-opacity:1;stroke-miterlimit:10;" d="M -2.071642 2.392851 C -1.692755 0.95538 -0.849047 0.279612 -0.00143324 -0.00163205 C -0.849047 -0.27897 -1.692755 -0.954738 -2.071642 -2.392209 " transform="matrix(-1.00005,0,0,1.00002,1.658723,60.728195)"/>
<path style="fill:none;stroke-width:0.3985;stroke-linecap:round;stroke-linejoin:round;stroke:rgb(0%,0%,0%);stroke-opacity:1;stroke-miterlimit:10;" d="M -2.072972 2.392209 C -1.694085 0.954738 -0.850377 0.27897 0.00114283 0.00163205 C -0.850377 -0.279612 -1.694085 -0.95538 -2.072972 -2.392851 " transform="matrix(1.00005,0,0,-1.00002,120.323076,60.728195)"/>
<path style="fill:none;stroke-width:0.3985;stroke-linecap:butt;stroke-linejoin:miter;stroke:rgb(0%,0%,0%);stroke-opacity:1;stroke-miterlimit:10;" d="M 0.00128804 -59.129998 L 0.00128804 59.129356 " transform="matrix(1.00005,0,0,-1.00002,60.990899,60.728195)"/>
<path style="fill:none;stroke-width:0.3985;stroke-linecap:round;stroke-linejoin:round;stroke:rgb(0%,0%,0%);stroke-opacity:1;stroke-miterlimit:10;" d="M -2.074175 2.391794 C -1.695276 0.958271 -0.851543 0.278618 0.00000258575 0.00128804 C -0.851543 -0.279948 -1.695276 -0.955695 -2.074175 -2.389217 " transform="matrix(0,1.00002,1.00005,0,60.990899,120.058591)"/>
<path style="fill:none;stroke-width:0.3985;stroke-linecap:round;stroke-linejoin:round;stroke:rgb(0%,0%,0%);stroke-opacity:1;stroke-miterlimit:10;" d="M -2.070911 2.389217 C -1.692012 0.955695 -0.848279 0.279948 -0.000639491 -0.00128804 C -0.848279 -0.278618 -1.692012 -0.958271 -2.070911 -2.391794 " transform="matrix(0,-1.00002,-1.00005,0,60.990899,1.397798)"/>
<path style="fill:none;stroke-width:0.79701;stroke-linecap:butt;stroke-linejoin:miter;stroke:rgb(0%,0%,100%);stroke-opacity:1;stroke-miterlimit:10;" d="M 51.022174 0.00163205 L 50.830778 3.59531 L 50.260494 7.142114 L 49.323041 10.606889 L 48.030137 13.934947 L 46.397406 17.091134 L 44.456097 20.0442 L 42.229645 22.751177 L 39.749301 25.188628 L 37.058029 27.325304 L 34.183173 29.14558 L 31.175511 30.629926 L 28.074103 31.774434 L 24.918011 32.571293 L 21.750201 33.020503 L 18.613639 33.133782 L 15.547386 32.918942 L 12.586596 32.391609 L 9.766425 31.575219 L 7.122026 30.49321 L 4.672929 29.172924 L 2.446478 27.649517 L 0.458296 25.958144 L -1.279898 24.12615 L -2.756387 22.196501 L -3.97117 20.204353 L -4.928153 18.180956 L -5.631243 16.161465 L -6.096063 14.181036 L -6.334333 12.270918 L -6.365581 10.454548 L -6.217151 8.751457 L -5.912479 7.185082 L -5.475001 5.774954 L -4.939871 4.521073 L -4.330527 3.435157 L -3.678215 2.517207 L -3.014186 1.763316 L -2.365781 1.169577 L -1.760343 0.720368 L -1.213495 0.400062 L -0.752581 0.189128 L -0.389317 0.068037 L -0.143236 0.0133506 L -0.0182422 0.00163205 L -0.0143362 -0.00227412 L -0.143236 -0.0139926 L -0.389317 -0.068679 L -0.752581 -0.18977 L -1.213495 -0.400704 L -1.756437 -0.72101 L -2.365781 -1.17022 L -3.014186 -1.763958 L -3.678215 -2.517849 L -4.330527 -3.435799 L -4.935965 -4.521715 L -5.475001 -5.77169 L -5.912479 -7.185724 L -6.217151 -8.752099 L -6.365581 -10.451284 L -6.334333 -12.27156 L -6.096063 -14.181678 L -5.631243 -16.162107 L -4.928153 -18.177692 L -3.97117 -20.201089 L -2.756387 -22.197143 L -1.279898 -24.126792 L 0.458296 -25.95488 L 2.446478 -27.650159 L 4.672929 -29.173566 L 7.122026 -30.489946 L 9.766425 -31.571955 L 12.586596 -32.392251 L 15.547386 -32.915678 L 18.613639 -33.134424 L 21.750201 -33.021145 L 24.918011 -32.571935 L 28.070197 -31.775076 L 31.175511 -30.630568 L 34.183173 -29.142316 L 37.058029 -27.325946 L 39.749301 -25.18927 L 42.229645 -22.751819 L 44.456097 -20.044842 L 46.397406 -17.095682 L 48.026231 -13.935589 L 49.323041 -10.603625 L 50.260494 -7.142756 L 50.830778 -3.595952 L 51.022174 0.00163205 " transform="matrix(1.00005,0,0,-1.00002,60.990899,60.728195)"/>
</g>
</svg>
