<?xml version="1.0" encoding="UTF-8"?>
<svg xmlns="http://www.w3.org/2000/svg" xmlns:xlink="http://www.w3.org/1999/xlink" width="122pt" height="122pt" viewBox="0 0 122 122" version="1.1">
<g id="surface1">
<path style="fill:none;stroke-width:0.3985;stroke-linecap:butt;stroke-linejoin:miter;stroke:rgb(0%,0%,0%);stroke-opacity:1;stroke-miterlimit:10;" d="M -59.128568 0.00163205 L 59.131144 0.00163205 " transform="matrix(1.00005,0,0,-1.00002,60.990899,60.728195)"/>
<path style="fill:none;stroke-width:0.3985;stroke-linecap:round;stroke-linejoin:round;stroke:rgb(0%,0%,0%);stroke-opacity:1;stroke-miterlimit:10;" d="M -2.071642 2.392851 C -1.692755 0.95538 -0.849047 0.279612 -0.00143324 -0.00163205 C -0.849047 -0.27897 -1.692755 -0.954738 -2.071642 -2.392209 " transform="matrix(-1.00005,0,0,1.00002,1.658723,60.728195)"/>
<path style="fill:none;stroke-width:0.3985;stroke-linecap:round;stroke-linejoin:round;stroke:rgb(0%,0%,0%);stroke-opacity:1;stroke-miterlimit:10;" d="M -2.072972 2.392209 C -1.694085 0.954738 -0.850377 0.27897 0.00114283 0.00163205 C -0.850377 -0.279612 -1.694085 -0.95538 -2.072972 -2.392851 " transform="matrix(1.00005,0,0,-1.00002,120.323076,60.728195)"/>
<path style="fill:none;stroke-width:0.3985;stroke-linecap:butt;stroke-linejoin:miter;stroke:rgb(0%,0%,0%);stroke-opacity:1;stroke-miterlimit:10;" d="M 0.00128804 -59.129998 L 0.00128804 59.129356 " transform="matrix(1.00005,0,0,-1.00002,60.990899,60.728195)"/>
<path style="fill:none;stroke-width:0.3985;stroke-linecap:round;stroke-linejoin:round;stroke:rgb(0%,0%,0%);stroke-opacity:1;stroke-miterlimit:10;" d="M -2.074175 2.391794 C -1.695276 0.958271 -0.851543 0.278618 0.00000258575 0.00128804 C -0.851543 -0.279948 -1.695276 -0.955695 -2.074175 -2.389217 " transform="matrix(0,1.00002,1.00005,0,60.990899,120.058591)"/>
<path style="fill:none;stroke-width:0.3985;stroke-linecap:round;stroke-linejoin:round;stroke:rgb(0%,0%,0%);stroke-opacity:1;stroke-miterlimit:10;" d="M -2.070911 2.389217 C -1.692012 0.955695 -0.848279 0.279948 -0.000639491 -0.00128804 C -0.848279 -0.278618 -1.692012 -0.958271 -2.070911 -2.391794 " transform="matrix(0,-1.00002,-1.00005,0,60.990899,1.397798)"/>
<path style="fill:none;stroke-width:0.79701;stroke-linecap:butt;stroke-linejoin:miter;stroke:rgb(0%,0%,100%);stroke-opacity:1;stroke-miterlimit:10;" d="M 0.00128804 0.00163205 L 3.774537 0.130536 L 7.516537 0.528965 L 11.196041 1.181296 L 14.777893 2.087528 L 18.234751 3.232036 L 21.531462 4.603103 L 24.648493 6.181196 L 27.554598 7.946786 L 30.234151 9.880341 L 32.655905 11.958424 L 34.808141 14.149787 L 36.675236 16.430991 L 38.24547 18.774694 L 39.507125 21.14574 L 40.456297 23.516787 L 41.092983 25.856584 L 41.41328 28.133882 L 41.424998 30.317432 L 41.132044 32.379891 L 40.550042 34.293915 L 39.686804 36.028255 L 38.565766 37.563381 L 37.198647 38.868042 L 35.612789 39.926615 L 33.831628 40.719568 L 31.8786 41.231276 L 29.781049 41.450022 L 27.570222 41.36018 L 25.273462 40.96175 L 22.925923 40.250827 L 20.551042 39.219598 L 18.183973 37.879781 L 15.855964 36.235282 L 13.594358 34.297821 L 11.426498 32.075209 L 9.383631 29.586978 L 7.489195 26.848751 L 5.766625 23.887873 L 4.239357 20.723874 L 2.923017 17.380191 L 1.84104 13.891979 L 0.993426 10.282676 L 0.403612 6.587438 L 0.0755031 2.833607 L 0.00910014 -0.943662 L 0.208309 -4.713117 L 0.669223 -8.443512 L 1.384031 -12.099688 L 2.352733 -15.654305 L 3.555798 -19.072205 L 4.977602 -22.329953 L 6.606427 -25.396297 L 8.41493 -28.247803 L 10.387487 -30.861032 L 12.496757 -33.22036 L 14.71149 -35.302349 L 17.012156 -37.095282 L 19.363601 -38.591346 L 21.738482 -39.774916 L 24.105552 -40.645993 L 26.429654 -41.200669 L 28.687354 -41.442852 L 30.847402 -41.376447 L 32.874644 -41.013173 L 34.745645 -40.356936 L 36.43306 -39.431173 L 37.909549 -38.243697 L 39.15558 -36.82185 L 40.151624 -35.185164 L 40.874244 -33.357076 L 41.315629 -31.364928 L 41.456247 -29.239971 L 41.292192 -27.00564 L 40.811748 -24.693187 L 40.022724 -22.333859 L 38.913405 -19.958906 L 37.499413 -17.595672 L 35.780749 -15.283219 L 33.765225 -13.041076 L 31.480183 -10.9044 L 28.925623 -8.896627 L 26.132794 -7.041196 L 23.11732 -5.365448 L 19.902637 -3.888915 L 16.523899 -2.631128 L 13.000638 -1.603805 L 9.368007 -0.82257 L 5.653349 -0.299143 L 1.887912 -0.0335235 L -1.889242 -0.0335235 L -5.650773 -0.299143 L -9.365431 -0.82257 L -12.998062 -1.603805 L -16.521323 -2.631128 L -19.903967 -3.888915 L -23.114744 -5.365448 L -26.130218 -7.041196 L -28.926953 -8.896627 L -31.477607 -10.9044 L -33.766555 -13.041076 L -35.778173 -15.279312 L -37.500743 -17.595672 L -38.914735 -19.955 L -40.020148 -22.333859 L -40.813077 -24.68928 L -41.289616 -27.001734 L -41.457577 -29.239971 L -41.313052 -31.364928 L -40.875574 -33.357076 L -40.152954 -35.185164 L -39.15691 -36.82185 L -37.910879 -38.243697 L -36.43439 -39.431173 L -34.746975 -40.356936 L -32.875974 -41.013173 L -30.848732 -41.376447 L -28.688684 -41.442852 L -26.430984 -41.200669 L -24.106882 -40.645993 L -21.739812 -39.774916 L -19.364931 -38.591346 L -17.013486 -37.095282 L -14.71282 -35.302349 L -12.494181 -33.22036 L -10.388817 -30.864938 L -8.41626 -28.247803 L -6.607757 -25.396297 L -4.978932 -22.329953 L -3.553222 -19.072205 L -2.354063 -15.654305 L -1.385361 -12.099688 L -0.666647 -8.443512 L -0.205733 -4.717024 L -0.00652407 -0.943662 L -0.072927 2.8297 L -0.404942 6.583532 L -0.994756 10.282676 L -1.838464 13.891979 L -2.924347 17.380191 L -4.240687 20.723874 L -5.767955 23.887873 L -7.490525 26.848751 L -9.384961 29.586978 L -11.427828 32.075209 L -13.591782 34.297821 L -15.853388 36.235282 L -18.185303 37.879781 L -20.548466 39.219598 L -22.923347 40.246921 L -25.274792 40.96175 L -27.571552 41.36018 L -29.782379 41.450022 L -31.87993 41.231276 L -33.832958 40.719568 L -35.614119 39.926615 L -37.199977 38.868042 L -38.56319 37.563381 L -39.684228 36.028255 L -40.547466 34.293915 L -41.129468 32.383797 L -41.422422 30.317432 L -41.410704 28.133882 L -41.090407 25.856584 L -40.457627 23.516787 L -39.508455 21.14574 L -38.2468 18.774694 L -36.676566 16.430991 L -34.809471 14.149787 L -32.657235 11.958424 L -30.235481 9.884247 L -27.555928 7.946786 L -24.649823 6.181196 L -21.532792 4.603103 L -18.236081 3.232036 L -14.779223 2.087528 L -11.197371 1.181296 L -7.517867 0.528965 L -3.775867 0.130536 L 0.00128804 0.00163205 " transform="matrix(1.00005,0,0,-1.00002,60.990899,60.728195)"/>
</g>
</svg>
