<?xml version="1.0" encoding="UTF-8"?>
<svg xmlns="http://www.w3.org/2000/svg" xmlns:xlink="http://www.w3.org/1999/xlink" width="111pt" height="115pt" viewBox="0 0 111 115" version="1.1">
<g id="surface1">
<path style=" stroke:none;fill-rule:nonzero;fill:rgb(50%,50%,100%);fill-opacity:0.5;" d="M 1.621094 46.25 L 6.121094 39.089844 L 10.617188 32.550781 L 15.113281 26.636719 L 19.609375 21.34375 L 24.105469 16.671875 L 28.605469 12.625 L 33.101562 9.199219 L 37.597656 6.398438 L 42.09375 4.21875 L 46.59375 2.660156 L 51.089844 1.726562 L 55.585938 1.414062 L 60.082031 1.726562 L 64.578125 2.660156 L 69.078125 4.21875 L 73.574219 6.398438 L 78.070312 9.199219 L 82.566406 12.625 L 87.066406 16.671875 L 91.5625 21.339844 L 96.058594 26.632812 L 100.554688 32.550781 L 105.054688 39.089844 L 109.550781 46.25 L 109.550781 68.667969 L 105.054688 70.535156 L 100.554688 72.40625 L 91.5625 76.140625 L 87.066406 78.011719 L 82.566406 79.878906 L 73.574219 83.613281 L 69.078125 85.484375 L 64.578125 87.351562 L 51.089844 92.953125 L 46.59375 94.824219 L 42.09375 96.691406 L 33.101562 100.425781 L 28.605469 102.296875 L 24.105469 104.164062 L 19.609375 106.03125 L 15.113281 107.902344 L 6.121094 111.636719 L 1.621094 113.503906 Z M 1.621094 46.25 "/>
<path style="fill:none;stroke-width:0.79701;stroke-linecap:butt;stroke-linejoin:miter;stroke:rgb(0%,0%,100%);stroke-opacity:1;stroke-miterlimit:10;" d="M 59.359094 94.148381 L 63.859094 101.307964 L 68.355187 107.846504 L 72.851281 113.760093 L 77.347375 119.052638 L 81.843469 123.72414 L 86.343469 127.770691 L 90.839562 131.196198 L 95.335656 133.996755 L 99.83175 136.176268 L 104.33175 137.734737 L 108.827844 138.668257 L 113.323937 138.980732 L 117.820031 138.668257 L 122.316125 137.734737 L 126.816125 136.176268 L 131.312219 133.996755 L 135.808312 131.196198 L 140.304406 127.770691 L 144.804406 123.72414 L 149.3005 119.056544 L 153.796594 113.763999 L 158.292687 107.846504 L 162.792687 101.307964 L 167.288781 94.148381 " transform="matrix(1,0,0,-1.00008,-57.738,140.405912)"/>
<path style="fill:none;stroke-width:0.79701;stroke-linecap:butt;stroke-linejoin:miter;stroke:rgb(0%,0%,100%);stroke-opacity:1;stroke-miterlimit:10;" d="M 59.359094 26.899854 L 63.859094 28.766892 L 72.851281 32.500969 L 77.347375 34.371913 L 81.843469 36.238951 L 86.343469 38.105989 L 90.839562 39.976933 L 99.83175 43.711009 L 104.33175 45.578047 L 108.827844 47.448992 L 122.316125 53.050106 L 126.816125 54.917144 L 131.312219 56.788088 L 140.304406 60.522164 L 144.804406 62.389203 L 149.3005 64.260147 L 158.292687 67.994223 L 162.792687 69.865167 L 167.288781 71.732205 " transform="matrix(1,0,0,-1.00008,-57.738,140.405912)"/>
<path style="fill:none;stroke-width:0.79701;stroke-linecap:butt;stroke-linejoin:miter;stroke:rgb(0%,0%,100%);stroke-opacity:1;stroke-miterlimit:10;" d="M 59.359094 26.899854 L 59.359094 94.148381 " transform="matrix(1,0,0,-1.00008,-57.738,140.405912)"/>
<path style="fill:none;stroke-width:0.79701;stroke-linecap:butt;stroke-linejoin:miter;stroke:rgb(0%,0%,100%);stroke-opacity:1;stroke-miterlimit:10;" d="M 167.288781 71.732205 L 167.288781 94.148381 " transform="matrix(1,0,0,-1.00008,-57.738,140.405912)"/>
</g>
</svg>
