<?xml version="1.0" encoding="UTF-8"?>
<svg xmlns="http://www.w3.org/2000/svg" xmlns:xlink="http://www.w3.org/1999/xlink" width="122pt" height="122pt" viewBox="0 0 122 122" version="1.1">
<g id="surface1">
<path style="fill:none;stroke-width:0.3985;stroke-linecap:butt;stroke-linejoin:miter;stroke:rgb(0%,0%,0%);stroke-opacity:1;stroke-miterlimit:10;" d="M -59.128568 0.00163205 L 59.131144 0.00163205 " transform="matrix(1.00005,0,0,-1.00002,60.990899,60.728195)"/>
<path style="fill:none;stroke-width:0.3985;stroke-linecap:round;stroke-linejoin:round;stroke:rgb(0%,0%,0%);stroke-opacity:1;stroke-miterlimit:10;" d="M -2.071642 2.392851 C -1.692755 0.95538 -0.849047 0.279612 -0.00143324 -0.00163205 C -0.849047 -0.27897 -1.692755 -0.954738 -2.071642 -2.392209 " transform="matrix(-1.00005,0,0,1.00002,1.658723,60.728195)"/>
<path style="fill:none;stroke-width:0.3985;stroke-linecap:round;stroke-linejoin:round;stroke:rgb(0%,0%,0%);stroke-opacity:1;stroke-miterlimit:10;" d="M -2.072972 2.392209 C -1.694085 0.954738 -0.850377 0.27897 0.00114283 0.00163205 C -0.850377 -0.279612 -1.694085 -0.95538 -2.072972 -2.392851 " transform="matrix(1.00005,0,0,-1.00002,120.323076,60.728195)"/>
<path style="fill:none;stroke-width:0.3985;stroke-linecap:butt;stroke-linejoin:miter;stroke:rgb(0%,0%,0%);stroke-opacity:1;stroke-miterlimit:10;" d="M 0.00128804 -59.129998 L 0.00128804 59.129356 " transform="matrix(1.00005,0,0,-1.00002,60.990899,60.728195)"/>
<path style="fill:none;stroke-width:0.3985;stroke-linecap:round;stroke-linejoin:round;stroke:rgb(0%,0%,0%);stroke-opacity:1;stroke-miterlimit:10;" d="M -2.074175 2.391794 C -1.695276 0.958271 -0.851543 0.278618 0.00000258575 0.00128804 C -0.851543 -0.279948 -1.695276 -0.955695 -2.074175 -2.389217 " transform="matrix(0,1.00002,1.00005,0,60.990899,120.058591)"/>
<path style="fill:none;stroke-width:0.3985;stroke-linecap:round;stroke-linejoin:round;stroke:rgb(0%,0%,0%);stroke-opacity:1;stroke-miterlimit:10;" d="M -2.070911 2.389217 C -1.692012 0.955695 -0.848279 0.279948 -0.000639491 -0.00128804 C -0.848279 -0.278618 -1.692012 -0.958271 -2.070911 -2.391794 " transform="matrix(0,-1.00002,-1.00005,0,60.990899,1.397798)"/>
<path style="fill:none;stroke-width:0.79701;stroke-linecap:butt;stroke-linejoin:miter;stroke:rgb(0%,0%,100%);stroke-opacity:1;stroke-miterlimit:10;" d="M 53.85797 0.00163205 L 53.631419 4.274984 L 52.963484 8.497556 L 51.861976 12.614661 L 50.342521 16.579425 L 48.428554 20.341069 L 46.151324 23.864436 L 43.54208 27.102653 L 40.639881 30.024469 L 37.491601 32.602543 L 34.128488 34.813436 L 30.613039 36.649337 L 26.984314 38.090714 L 23.293092 39.137568 L 19.586246 39.801617 L 15.906743 40.082862 L 12.297548 39.996926 L 8.793817 39.571153 L 5.438516 38.828981 L 2.255082 37.793845 L -0.725238 36.504808 L -3.490725 34.989214 L -6.017942 33.282216 L -8.30689 31.422879 L -10.349757 29.442449 L -12.146542 27.379991 L -13.705058 25.258939 L -15.033116 23.118357 L -16.150248 20.977775 L -17.068171 18.856724 L -17.810321 16.77864 L -18.39623 14.755243 L -18.845426 12.794345 L -19.181347 10.903758 L -19.423522 9.083482 L -19.595388 7.32961 L -19.708664 5.630426 L -19.778973 3.985927 L -19.82194 2.376585 L -19.84147 0.790679 L -19.84147 -0.787415 L -19.82194 -2.377227 L -19.778973 -3.986569 L -19.708664 -5.631068 L -19.595388 -7.326346 L -19.423522 -9.084124 L -19.181347 -10.9044 L -18.845426 -12.794987 L -18.39623 -14.755885 L -17.810321 -16.779282 L -17.068171 -18.857366 L -16.150248 -20.974511 L -15.033116 -23.118999 L -13.705058 -25.259581 L -12.146542 -27.380633 L -10.349757 -29.443092 L -8.30689 -31.423521 L -6.017942 -33.282859 L -3.490725 -34.989856 L -0.725238 -36.50545 L 2.255082 -37.794487 L 5.438516 -38.829623 L 8.793817 -39.571795 L 12.297548 -40.001474 L 15.906743 -40.079598 L 19.586246 -39.798353 L 23.293092 -39.13821 L 26.984314 -38.091356 L 30.613039 -36.646072 L 34.128488 -34.814078 L 37.487695 -32.603185 L 40.639881 -30.021205 L 43.54208 -27.099388 L 46.151324 -23.861172 L 48.428554 -20.341711 L 50.342521 -16.580068 L 51.861976 -12.611397 L 52.963484 -8.498198 L 53.631419 -4.275626 L 53.85797 0.00163205 " transform="matrix(1.00005,0,0,-1.00002,60.990899,60.728195)"/>
</g>
</svg>
