<?xml version="1.0" encoding="UTF-8"?>
<svg xmlns="http://www.w3.org/2000/svg" xmlns:xlink="http://www.w3.org/1999/xlink" width="122pt" height="122pt" viewBox="0 0 122 122" version="1.1">
<g id="surface1">
<path style="fill:none;stroke-width:0.3985;stroke-linecap:butt;stroke-linejoin:miter;stroke:rgb(0%,0%,0%);stroke-opacity:1;stroke-miterlimit:10;" d="M -59.128568 0.00163205 L 59.131144 0.00163205 " transform="matrix(1.00005,0,0,-1.00002,60.990899,60.728195)"/>
<path style="fill:none;stroke-width:0.3985;stroke-linecap:round;stroke-linejoin:round;stroke:rgb(0%,0%,0%);stroke-opacity:1;stroke-miterlimit:10;" d="M -2.071642 2.392851 C -1.692755 0.95538 -0.849047 0.279612 -0.00143324 -0.00163205 C -0.849047 -0.27897 -1.692755 -0.954738 -2.071642 -2.392209 " transform="matrix(-1.00005,0,0,1.00002,1.658723,60.728195)"/>
<path style="fill:none;stroke-width:0.3985;stroke-linecap:round;stroke-linejoin:round;stroke:rgb(0%,0%,0%);stroke-opacity:1;stroke-miterlimit:10;" d="M -2.072972 2.392209 C -1.694085 0.954738 -0.850377 0.27897 0.00114283 0.00163205 C -0.850377 -0.279612 -1.694085 -0.95538 -2.072972 -2.392851 " transform="matrix(1.00005,0,0,-1.00002,120.323076,60.728195)"/>
<path style="fill:none;stroke-width:0.3985;stroke-linecap:butt;stroke-linejoin:miter;stroke:rgb(0%,0%,0%);stroke-opacity:1;stroke-miterlimit:10;" d="M 0.00128804 -59.129998 L 0.00128804 59.129356 " transform="matrix(1.00005,0,0,-1.00002,60.990899,60.728195)"/>
<path style="fill:none;stroke-width:0.3985;stroke-linecap:round;stroke-linejoin:round;stroke:rgb(0%,0%,0%);stroke-opacity:1;stroke-miterlimit:10;" d="M -2.074175 2.391794 C -1.695276 0.958271 -0.851543 0.278618 0.00000258575 0.00128804 C -0.851543 -0.279948 -1.695276 -0.955695 -2.074175 -2.389217 " transform="matrix(0,1.00002,1.00005,0,60.990899,120.058591)"/>
<path style="fill:none;stroke-width:0.3985;stroke-linecap:round;stroke-linejoin:round;stroke:rgb(0%,0%,0%);stroke-opacity:1;stroke-miterlimit:10;" d="M -2.070911 2.389217 C -1.692012 0.955695 -0.848279 0.279948 -0.000639491 -0.00128804 C -0.848279 -0.278618 -1.692012 -0.958271 -2.070911 -2.391794 " transform="matrix(0,-1.00002,-1.00005,0,60.990899,1.397798)"/>
<path style="fill:none;stroke-width:0.79701;stroke-linecap:butt;stroke-linejoin:miter;stroke:rgb(0%,0%,100%);stroke-opacity:1;stroke-miterlimit:10;" d="M 0.00128804 0.00163205 L 0.844996 0.068037 L 1.676986 0.267252 L 2.477727 0.599276 L 3.231595 1.056298 L 3.919061 1.630506 L 4.532311 2.321898 L 5.055723 3.114851 L 5.473671 4.001552 L 5.782249 4.974189 L 5.961928 6.009324 L 6.012706 7.099146 L 5.922867 8.231936 L 5.684598 9.384257 L 5.301804 10.548296 L 4.762769 11.700617 L 4.079209 12.825594 L 3.239407 13.907604 L 2.255082 14.927115 L 1.130138 15.872408 L -0.131518 16.720048 L -1.518167 17.46222 L -3.021998 18.079395 L -4.635199 18.555948 L -6.334333 18.884067 L -8.111588 19.052032 L -9.951339 19.04422 L -11.834058 18.86063 L -13.744118 18.485637 L -15.661991 17.919242 L -17.572052 17.161445 L -19.450864 16.204433 L -21.278898 15.052112 L -23.032717 13.704483 L -24.700602 12.173264 L -26.259118 10.454548 L -27.688734 8.563961 L -28.973826 6.509314 L -30.098769 4.306233 L -31.040129 1.96253 L -31.786185 -0.502264 L -32.329127 -3.068619 L -32.649423 -5.728722 L -32.739262 -8.451324 L -32.594738 -11.2208 L -32.204133 -14.013713 L -31.56354 -16.810532 L -30.669053 -19.58782 L -29.528485 -22.318234 L -28.134024 -24.982243 L -26.493481 -27.560317 L -24.614669 -30.025111 L -22.505399 -32.35319 L -20.173484 -34.521115 L -17.634549 -36.513263 L -14.900311 -38.306196 L -11.9903 -39.880383 L -8.920141 -41.224106 L -5.71327 -42.317834 L -2.385311 -43.149849 L 1.032486 -43.704525 L 4.528405 -43.977957 L 8.067291 -43.95452 L 11.629613 -43.634214 L 15.184123 -43.013133 L 18.71129 -42.091276 L 22.179867 -40.864738 L 25.56251 -39.345237 L 28.835784 -37.532774 L 31.976252 -35.439065 L 34.948759 -33.071925 L 37.741589 -30.450884 L 40.327397 -27.583754 L 42.682748 -24.493972 L 44.788111 -21.197163 L 46.623957 -17.716764 L 48.174661 -14.072305 L 49.43241 -10.291131 L 50.377675 -6.396677 L 50.998738 -2.416288 L 51.295598 1.618787 L 51.256538 5.685112 L 50.885463 9.755343 L 50.174561 13.798231 L 49.131644 17.782526 L 47.756713 21.684792 L 46.061485 25.473779 L 44.053773 29.118237 L 41.749201 32.602543 L 39.151674 35.891539 L 36.292442 38.965697 L 33.183223 41.797671 L 29.843546 44.375745 L 26.296848 46.672574 L 22.570472 48.67644 L 18.683948 50.363906 L 14.668523 51.731066 L 10.551542 52.766202 L 6.360345 53.4615 L 2.126182 53.80915 L -2.123606 53.80915 L -6.357769 53.4615 L -10.548966 52.766202 L -14.665947 51.734972 L -18.681372 50.367812 L -22.567896 48.67644 L -26.294272 46.672574 L -29.84097 44.379651 L -33.180647 41.801577 L -36.289866 38.965697 L -39.153004 35.895445 L -41.746625 32.606449 L -44.051197 29.122143 L -46.058909 25.473779 L -47.754137 21.684792 L -49.132974 17.786433 L -50.175891 13.798231 L -50.882887 9.759249 L -51.257868 5.689018 L -51.296928 1.618787 L -51.000068 -2.416288 L -50.379005 -6.392771 L -49.43374 -10.287225 L -48.175991 -14.068399 L -46.625287 -17.712857 L -44.785535 -21.193257 L -42.680172 -24.490066 L -40.328727 -27.583754 L -37.742919 -30.446978 L -34.953995 -33.071925 L -31.977582 -35.435159 L -28.837114 -37.528867 L -25.567746 -39.341331 L -22.181197 -40.864738 L -18.716526 -42.091276 L -15.189359 -43.013133 L -11.630943 -43.634214 L -8.068621 -43.95452 L -4.529735 -43.977957 L -1.037723 -43.704525 L 2.383981 -43.149849 L 5.71194 -42.317834 L 8.918811 -41.224106 L 11.98897 -39.880383 L 14.898981 -38.306196 L 17.633219 -36.513263 L 20.172154 -34.521115 L 22.504069 -32.35319 L 24.613339 -30.025111 L 26.492151 -27.560317 L 28.132694 -24.986149 L 29.527155 -22.32214 L 30.667723 -19.58782 L 31.56221 -16.810532 L 32.202803 -14.013713 L 32.593408 -11.2208 L 32.741839 -8.451324 L 32.651999 -5.728722 L 32.327797 -3.072525 L 31.788761 -0.502264 L 31.038799 1.96253 L 30.097439 4.302327 L 28.976402 6.509314 L 27.69131 8.563961 L 26.261694 10.454548 L 24.703178 12.169357 L 23.035293 13.704483 L 21.277568 15.052112 L 19.449534 16.204433 L 17.574628 17.161445 L 15.664567 17.919242 L 13.746695 18.485637 L 11.836634 18.86063 L 9.950009 19.04422 L 8.114164 19.052032 L 6.336909 18.884067 L 4.633869 18.559855 L 3.024574 18.079395 L 1.520743 17.46222 L 0.134094 16.723954 L -1.127562 15.872408 L -2.252506 14.927115 L -3.240737 13.907604 L -4.076633 12.825594 L -4.764099 11.700617 L -5.299228 10.548296 L -5.685928 9.388163 L -5.920291 8.231936 L -6.01013 7.103053 L -5.963257 6.009324 L -5.779673 4.974189 L -5.475001 4.005458 L -5.053147 3.118757 L -4.533641 2.321898 L -3.920391 1.630506 L -3.229019 1.056298 L -2.479057 0.599276 L -1.678315 0.267252 L -0.846326 0.068037 L 0.00128804 0.00163205 " transform="matrix(1.00005,0,0,-1.00002,60.990899,60.728195)"/>
</g>
</svg>
