<?xml version="1.0" encoding="UTF-8"?>
<svg xmlns="http://www.w3.org/2000/svg" xmlns:xlink="http://www.w3.org/1999/xlink" width="122pt" height="122pt" viewBox="0 0 122 122" version="1.1">
<g id="surface1">
<path style="fill:none;stroke-width:0.3985;stroke-linecap:butt;stroke-linejoin:miter;stroke:rgb(0%,0%,0%);stroke-opacity:1;stroke-miterlimit:10;" d="M -59.128568 0.00163205 L 59.131144 0.00163205 " transform="matrix(1.00005,0,0,-1.00002,60.990899,60.728195)"/>
<path style="fill:none;stroke-width:0.3985;stroke-linecap:round;stroke-linejoin:round;stroke:rgb(0%,0%,0%);stroke-opacity:1;stroke-miterlimit:10;" d="M -2.071642 2.392851 C -1.692755 0.95538 -0.849047 0.279612 -0.00143324 -0.00163205 C -0.849047 -0.27897 -1.692755 -0.954738 -2.071642 -2.392209 " transform="matrix(-1.00005,0,0,1.00002,1.658723,60.728195)"/>
<path style="fill:none;stroke-width:0.3985;stroke-linecap:round;stroke-linejoin:round;stroke:rgb(0%,0%,0%);stroke-opacity:1;stroke-miterlimit:10;" d="M -2.072972 2.392209 C -1.694085 0.954738 -0.850377 0.27897 0.00114283 0.00163205 C -0.850377 -0.279612 -1.694085 -0.95538 -2.072972 -2.392851 " transform="matrix(1.00005,0,0,-1.00002,120.323076,60.728195)"/>
<path style="fill:none;stroke-width:0.3985;stroke-linecap:butt;stroke-linejoin:miter;stroke:rgb(0%,0%,0%);stroke-opacity:1;stroke-miterlimit:10;" d="M 0.00128804 -59.129998 L 0.00128804 59.129356 " transform="matrix(1.00005,0,0,-1.00002,60.990899,60.728195)"/>
<path style="fill:none;stroke-width:0.3985;stroke-linecap:round;stroke-linejoin:round;stroke:rgb(0%,0%,0%);stroke-opacity:1;stroke-miterlimit:10;" d="M -2.074175 2.391794 C -1.695276 0.958271 -0.851543 0.278618 0.00000258575 0.00128804 C -0.851543 -0.279948 -1.695276 -0.955695 -2.074175 -2.389217 " transform="matrix(0,1.00002,1.00005,0,60.990899,120.058591)"/>
<path style="fill:none;stroke-width:0.3985;stroke-linecap:round;stroke-linejoin:round;stroke:rgb(0%,0%,0%);stroke-opacity:1;stroke-miterlimit:10;" d="M -2.070911 2.389217 C -1.692012 0.955695 -0.848279 0.279948 -0.000639491 -0.00128804 C -0.848279 -0.278618 -1.692012 -0.958271 -2.070911 -2.391794 " transform="matrix(0,-1.00002,-1.00005,0,60.990899,1.397798)"/>
<path style="fill:none;stroke-width:0.79701;stroke-linecap:butt;stroke-linejoin:miter;stroke:rgb(0%,0%,100%);stroke-opacity:1;stroke-miterlimit:10;" d="M 51.026081 0.00163205 L 50.83859 3.59531 L 50.291742 7.14602 L 49.385538 10.618607 L 48.139506 13.966197 L 46.56146 17.153633 L 44.682648 20.14576 L 42.526506 22.91133 L 40.124282 25.422999 L 37.503319 27.653423 L 34.702678 29.583072 L 31.757513 31.200227 L 28.706884 32.49317 L 25.593758 33.454088 L 22.449384 34.086888 L 19.320635 34.395475 L 16.238757 34.387663 L 13.242813 34.075169 L 10.356239 33.481431 L 7.618095 32.62598 L 5.051817 31.528345 L 2.673029 30.22759 L 0.505169 28.739339 L -1.43614 27.106559 L -3.146992 25.356594 L -4.623481 23.520693 L -5.865606 21.630106 L -6.873368 19.719988 L -7.658485 17.817682 L -8.232675 15.946626 L -8.607657 14.134162 L -8.810771 12.399822 L -8.857644 10.767042 L -8.767805 9.243635 L -8.572502 7.845225 L -8.291266 6.575719 L -7.947533 5.439023 L -7.572552 4.431231 L -7.185853 3.552342 L -6.810871 2.786733 L -6.463232 2.12659 L -6.166372 1.556288 L -5.928103 1.056298 L -5.764049 0.610995 L -5.682022 0.200847 L -5.682022 -0.201489 L -5.764049 -0.611637 L -5.928103 -1.056941 L -6.166372 -1.553024 L -6.463232 -2.123325 L -6.810871 -2.787375 L -7.185853 -3.549078 L -7.572552 -4.431873 L -7.947533 -5.439665 L -8.291266 -6.576361 L -8.572502 -7.845867 L -8.767805 -9.244277 L -8.857644 -10.767684 L -8.810771 -12.400464 L -8.607657 -14.130898 L -8.232675 -15.943362 L -7.658485 -17.814418 L -6.873368 -19.72063 L -5.865606 -21.630748 L -4.623481 -23.521335 L -3.146992 -25.357236 L -1.43614 -27.107201 L 0.505169 -28.739981 L 2.673029 -30.224326 L 5.051817 -31.528987 L 7.618095 -32.622715 L 10.356239 -33.482073 L 13.238907 -34.075811 L 16.238757 -34.388305 L 19.320635 -34.396117 L 22.449384 -34.08753 L 25.593758 -33.45473 L 28.706884 -32.493812 L 31.757513 -31.200869 L 34.698772 -29.583714 L 37.503319 -27.654065 L 40.120376 -25.423641 L 42.526506 -22.911972 L 44.682648 -20.146402 L 46.565366 -17.154275 L 48.1356 -13.966839 L 49.385538 -10.619249 L 50.287836 -7.146662 L 50.83859 -3.595952 L 51.022174 0.00163205 " transform="matrix(1.00005,0,0,-1.00002,60.990899,60.728195)"/>
</g>
</svg>
