<?xml version="1.0" encoding="UTF-8"?>
<svg xmlns="http://www.w3.org/2000/svg" xmlns:xlink="http://www.w3.org/1999/xlink" width="122pt" height="122pt" viewBox="0 0 122 122" version="1.1">
<g id="surface1">
<path style="fill:none;stroke-width:0.3985;stroke-linecap:butt;stroke-linejoin:miter;stroke:rgb(0%,0%,0%);stroke-opacity:1;stroke-miterlimit:10;" d="M -59.128568 0.00163205 L 59.131144 0.00163205 " transform="matrix(1.00005,0,0,-1.00002,60.990899,60.728195)"/>
<path style="fill:none;stroke-width:0.3985;stroke-linecap:round;stroke-linejoin:round;stroke:rgb(0%,0%,0%);stroke-opacity:1;stroke-miterlimit:10;" d="M -2.071642 2.392851 C -1.692755 0.95538 -0.849047 0.279612 -0.00143324 -0.00163205 C -0.849047 -0.27897 -1.692755 -0.954738 -2.071642 -2.392209 " transform="matrix(-1.00005,0,0,1.00002,1.658723,60.728195)"/>
<path style="fill:none;stroke-width:0.3985;stroke-linecap:round;stroke-linejoin:round;stroke:rgb(0%,0%,0%);stroke-opacity:1;stroke-miterlimit:10;" d="M -2.072972 2.392209 C -1.694085 0.954738 -0.850377 0.27897 0.00114283 0.00163205 C -0.850377 -0.279612 -1.694085 -0.95538 -2.072972 -2.392851 " transform="matrix(1.00005,0,0,-1.00002,120.323076,60.728195)"/>
<path style="fill:none;stroke-width:0.3985;stroke-linecap:butt;stroke-linejoin:miter;stroke:rgb(0%,0%,0%);stroke-opacity:1;stroke-miterlimit:10;" d="M 0.00128804 -59.129998 L 0.00128804 59.129356 " transform="matrix(1.00005,0,0,-1.00002,60.990899,60.728195)"/>
<path style="fill:none;stroke-width:0.3985;stroke-linecap:round;stroke-linejoin:round;stroke:rgb(0%,0%,0%);stroke-opacity:1;stroke-miterlimit:10;" d="M -2.074175 2.391794 C -1.695276 0.958271 -0.851543 0.278618 0.00000258575 0.00128804 C -0.851543 -0.279948 -1.695276 -0.955695 -2.074175 -2.389217 " transform="matrix(0,1.00002,1.00005,0,60.990899,120.058591)"/>
<path style="fill:none;stroke-width:0.3985;stroke-linecap:round;stroke-linejoin:round;stroke:rgb(0%,0%,0%);stroke-opacity:1;stroke-miterlimit:10;" d="M -2.070911 2.389217 C -1.692012 0.955695 -0.848279 0.279948 -0.000639491 -0.00128804 C -0.848279 -0.278618 -1.692012 -0.958271 -2.070911 -2.391794 " transform="matrix(0,-1.00002,-1.00005,0,60.990899,1.397798)"/>
<path style="fill:none;stroke-width:0.79701;stroke-linecap:butt;stroke-linejoin:miter;stroke:rgb(0%,0%,100%);stroke-opacity:1;stroke-miterlimit:10;" d="M 0.00128804 0.00163205 L 8.30556 -7.935709 L 11.992876 -10.947368 L 14.977102 -13.060607 L 17.609783 -14.666043 L 20.02763 -15.916018 L 22.289236 -16.900374 L 24.429754 -17.662077 L 26.468715 -18.236284 L 28.421742 -18.642526 L 30.300554 -18.900334 L 32.101246 -19.025331 L 33.835534 -19.025331 L 35.503419 -18.912052 L 37.100996 -18.693307 L 38.636075 -18.373 L 40.100846 -17.962852 L 41.499213 -17.466769 L 42.831178 -16.888655 L 44.088927 -16.236324 L 45.280274 -15.513683 L 46.397406 -14.724636 L 47.440322 -13.876997 L 48.41293 -12.970765 L 49.30351 -12.013753 L 50.119876 -11.009866 L 50.85812 -9.963012 L 51.518243 -8.881003 L 52.09634 -7.763838 L 52.592408 -6.619329 L 53.010356 -5.447478 L 53.342371 -4.260001 L 53.592358 -3.052994 L 53.760319 -1.834269 L 53.846252 -0.611637 L 53.846252 0.610995 L 53.764225 1.833627 L 53.592358 3.052352 L 53.342371 4.259359 L 53.010356 5.446836 L 52.592408 6.618687 L 52.09634 7.763196 L 51.518243 8.880361 L 50.85812 9.966277 L 50.119876 11.009224 L 49.30351 12.013111 L 48.41293 12.970123 L 47.440322 13.876355 L 46.397406 14.723994 L 45.280274 15.513041 L 44.088927 16.235682 L 42.831178 16.888013 L 41.499213 17.466127 L 40.100846 17.96221 L 38.636075 18.372358 L 37.100996 18.692664 L 35.503419 18.91141 L 33.835534 19.024689 L 32.105152 19.024689 L 30.300554 18.899692 L 28.425648 18.641884 L 26.468715 18.235642 L 24.429754 17.665341 L 22.289236 16.903638 L 20.02763 15.919282 L 17.613689 14.665401 L 14.981008 13.059965 L 11.992876 10.950632 L 8.309466 7.938973 L 0.169248 0.169597 " transform="matrix(1.00005,0,0,-1.00002,60.990899,60.728195)"/>
<path style="fill:none;stroke-width:0.79701;stroke-linecap:butt;stroke-linejoin:miter;stroke:rgb(0%,0%,100%);stroke-opacity:1;stroke-miterlimit:10;" d="M 0.00128804 0.00163205 L -8.302984 7.935067 L -11.9903 10.946726 L -14.978432 13.059965 L -17.611113 14.665401 L -20.02896 15.919282 L -22.28666 16.903638 L -24.427178 17.665341 L -26.470045 18.235642 L -28.423072 18.641884 L -30.301884 18.899692 L -32.102576 19.024689 L -33.836864 19.024689 L -35.504749 18.91141 L -37.102326 18.692664 L -38.633499 18.372358 L -40.102176 17.96221 L -41.500543 17.466127 L -42.828602 16.888013 L -44.090257 16.235682 L -45.277698 15.513041 L -46.39483 14.723994 L -47.441652 13.876355 L -48.410354 12.970123 L -49.300934 12.013111 L -50.121206 11.009224 L -50.85945 9.966277 L -51.515667 8.880361 L -52.093763 7.763196 L -52.593738 6.618687 L -53.00778 5.446836 L -53.339795 4.259359 L -53.593688 3.052352 L -53.761649 1.837533 L -53.843676 0.610995 L -53.843676 -0.611637 L -53.761649 -1.834269 L -53.593688 -3.052994 L -53.339795 -4.260001 L -53.00778 -5.447478 L -52.593738 -6.619329 L -52.09767 -7.763838 L -51.515667 -8.881003 L -50.85945 -9.966919 L -50.121206 -11.009866 L -49.300934 -12.013753 L -48.410354 -12.970765 L -47.441652 -13.87309 L -46.39483 -14.724636 L -45.281604 -15.513683 L -44.090257 -16.236324 L -42.828602 -16.888655 L -41.500543 -17.466769 L -40.102176 -17.962852 L -38.637405 -18.373 L -37.102326 -18.693307 L -35.504749 -18.912052 L -33.836864 -19.025331 L -32.102576 -19.025331 L -30.301884 -18.900334 L -28.423072 -18.642526 L -26.470045 -18.236284 L -24.431084 -17.662077 L -22.290566 -16.900374 L -20.02896 -15.919925 L -17.615019 -14.666043 L -14.978432 -13.060607 L -11.994206 -10.947368 L -8.30689 -7.935709 L -0.170578 -0.17024 " transform="matrix(1.00005,0,0,-1.00002,60.990899,60.728195)"/>
</g>
</svg>
