<?xml version="1.0" encoding="UTF-8"?>
<svg xmlns="http://www.w3.org/2000/svg" xmlns:xlink="http://www.w3.org/1999/xlink" width="122pt" height="122pt" viewBox="0 0 122 122" version="1.1">
<g id="surface1">
<path style="fill:none;stroke-width:0.3985;stroke-linecap:butt;stroke-linejoin:miter;stroke:rgb(0%,0%,0%);stroke-opacity:1;stroke-miterlimit:10;" d="M -59.128568 0.00163205 L 59.131144 0.00163205 " transform="matrix(1.00005,0,0,-1.00002,60.990899,60.728195)"/>
<path style="fill:none;stroke-width:0.3985;stroke-linecap:round;stroke-linejoin:round;stroke:rgb(0%,0%,0%);stroke-opacity:1;stroke-miterlimit:10;" d="M -2.071642 2.392851 C -1.692755 0.95538 -0.849047 0.279612 -0.00143324 -0.00163205 C -0.849047 -0.27897 -1.692755 -0.954738 -2.071642 -2.392209 " transform="matrix(-1.00005,0,0,1.00002,1.658723,60.728195)"/>
<path style="fill:none;stroke-width:0.3985;stroke-linecap:round;stroke-linejoin:round;stroke:rgb(0%,0%,0%);stroke-opacity:1;stroke-miterlimit:10;" d="M -2.072972 2.392209 C -1.694085 0.954738 -0.850377 0.27897 0.00114283 0.00163205 C -0.850377 -0.279612 -1.694085 -0.95538 -2.072972 -2.392851 " transform="matrix(1.00005,0,0,-1.00002,120.323076,60.728195)"/>
<path style="fill:none;stroke-width:0.3985;stroke-linecap:butt;stroke-linejoin:miter;stroke:rgb(0%,0%,0%);stroke-opacity:1;stroke-miterlimit:10;" d="M 0.00128804 -59.129998 L 0.00128804 59.129356 " transform="matrix(1.00005,0,0,-1.00002,60.990899,60.728195)"/>
<path style="fill:none;stroke-width:0.3985;stroke-linecap:round;stroke-linejoin:round;stroke:rgb(0%,0%,0%);stroke-opacity:1;stroke-miterlimit:10;" d="M -2.074175 2.391794 C -1.695276 0.958271 -0.851543 0.278618 0.00000258575 0.00128804 C -0.851543 -0.279948 -1.695276 -0.955695 -2.074175 -2.389217 " transform="matrix(0,1.00002,1.00005,0,60.990899,120.058591)"/>
<path style="fill:none;stroke-width:0.3985;stroke-linecap:round;stroke-linejoin:round;stroke:rgb(0%,0%,0%);stroke-opacity:1;stroke-miterlimit:10;" d="M -2.070911 2.389217 C -1.692012 0.955695 -0.848279 0.279948 -0.000639491 -0.00128804 C -0.848279 -0.278618 -1.692012 -0.958271 -2.070911 -2.391794 " transform="matrix(0,-1.00002,-1.00005,0,60.990899,1.397798)"/>
<path style="fill:none;stroke-width:0.79701;stroke-linecap:butt;stroke-linejoin:miter;stroke:rgb(0%,0%,100%);stroke-opacity:1;stroke-miterlimit:10;" d="M 0.00128804 0.00163205 L 0.282524 0.0250691 L 0.555948 0.107099 L 0.813747 0.236002 L 1.048111 0.419592 L 1.255132 0.642244 L 1.426998 0.91177 L 1.559804 1.216452 L 1.641831 1.552382 L 1.673079 1.915656 L 1.649643 2.294555 L 1.567616 2.685172 L 1.426998 3.075789 L 1.223883 3.4625 L 0.958271 3.837493 L 0.634069 4.189048 L 0.251276 4.513261 L -0.190109 4.798411 L -0.678365 5.040594 L -1.217401 5.22809 L -1.795497 5.356994 L -2.408748 5.423399 L -3.049341 5.415586 L -3.709464 5.337463 L -4.381305 5.17731 L -5.053147 4.935127 L -5.717176 4.614821 L -6.361675 4.208579 L -6.982738 3.720308 L -7.56474 3.153913 L -8.099869 2.505488 L -8.576408 1.786753 L -8.986544 0.997706 L -9.326371 0.150067 L -9.576358 -0.752259 L -9.744318 -1.705365 L -9.810721 -2.693627 L -9.775567 -3.709231 L -9.634949 -4.740461 L -9.384961 -5.779502 L -9.021698 -6.810732 L -8.54516 -7.826336 L -7.955345 -8.806786 L -7.256162 -9.748173 L -6.447608 -10.630968 L -5.533591 -11.447358 L -4.525829 -12.185624 L -3.428228 -12.830143 L -2.244693 -13.377007 L -0.99085 -13.810592 L 0.325491 -14.126992 L 1.696516 -14.310582 L 3.098789 -14.365268 L 4.528405 -14.275426 L 5.96974 -14.044962 L 7.407168 -13.662157 L 8.825066 -13.13873 L 10.203903 -12.462962 L 11.535868 -11.642666 L 12.801429 -10.677842 L 13.98887 -9.580208 L 15.078659 -8.35367 L 16.059079 -7.002134 L 16.918411 -5.53732 L 17.641031 -3.974851 L 18.219127 -2.326446 L 18.640981 -0.599918 L 18.894875 1.181296 L 18.980808 3.009384 L 18.883156 4.86091 L 18.605827 6.720248 L 18.141006 8.571773 L 17.492601 10.392049 L 16.660611 12.165451 L 15.645037 13.872448 L 14.457596 15.497416 L 13.098289 17.020823 L 11.578834 18.423139 L 9.914855 19.688738 L 8.110258 20.798091 L 6.184573 21.747291 L 4.149518 22.508994 L 2.02853 23.083202 L -0.166672 23.454288 L -2.412654 23.614441 L -4.689884 23.555848 L -6.974926 23.27851 L -9.252156 22.77852 L -11.498137 22.051972 L -13.685528 21.102773 L -15.794797 19.934827 L -17.802509 18.555948 L -19.69304 16.973949 L -21.439046 15.196641 L -23.02881 13.243555 L -24.43499 11.122503 L -25.641961 8.853018 L -26.641911 6.454628 L -27.411404 3.946866 L -27.942627 1.353168 L -28.227769 -1.306936 L -28.259018 -4.013913 L -28.02856 -6.732608 L -27.532492 -9.443492 L -26.770811 -12.123125 L -25.751331 -14.740261 L -24.474051 -17.27146 L -22.942877 -19.693287 L -21.173434 -21.978397 L -19.177441 -24.103355 L -16.966614 -26.048628 L -14.556578 -27.782969 L -11.97077 -29.298563 L -9.228719 -30.568069 L -6.349957 -31.583674 L -3.365731 -32.325846 L -0.295572 -32.778962 L 2.829272 -32.943022 L 5.981458 -32.806306 L 9.133644 -32.364908 L 12.254582 -31.618829 L 15.316929 -30.571975 L 18.289436 -29.224346 L 21.144762 -27.58766 L 23.851658 -25.673636 L 26.382781 -23.490086 L 28.714696 -21.056541 L 30.82006 -18.392531 L 32.675436 -15.513683 L 34.261294 -12.451244 L 35.558104 -9.224746 L 36.550242 -5.865438 L 37.225989 -2.40457 L 37.565816 1.134422 L 37.573628 4.720288 L 37.233801 8.31006 L 36.550242 11.884207 L 35.519043 15.399762 L 34.151924 18.825474 L 32.45279 22.130096 L 30.429454 25.282376 L 28.105352 28.247161 L 25.484389 30.9932 L 22.597814 33.500962 L 19.465159 35.735292 L 16.109858 37.67666 L 12.559254 39.301627 L 8.844596 40.586758 L 5.001038 41.524239 L 1.059829 42.09454 L -2.943877 42.285943 L -6.974926 42.098446 L -10.998162 41.524239 L -14.974526 40.559415 L -18.864956 39.215692 L -22.634299 37.500882 L -26.2474 35.418892 L -29.669103 32.985347 L -32.864256 30.223684 L -35.801609 27.153433 L -38.446008 23.794125 L -40.777923 20.17701 L -42.770011 16.32943 L -44.391024 12.286543 L -45.637055 8.083502 L -46.476857 3.751557 L -46.906523 -0.662417 L -46.914335 -5.123265 L -46.496387 -9.595832 L -45.648773 -14.033244 L -44.379305 -18.396437 L -42.69189 -22.642446 L -40.594338 -26.732208 L -38.102276 -30.630568 L -35.239137 -34.294557 L -32.020548 -37.685114 L -28.473851 -40.778802 L -24.630293 -43.532654 L -20.517217 -45.927137 L -16.173684 -47.931003 L -11.630943 -49.516909 L -6.935865 -50.677042 L -2.123606 -51.387965 L 2.758963 -51.641866 L 7.672779 -51.427027 L 12.570972 -50.747353 L 17.406668 -49.595032 L 22.1369 -47.985689 L 26.718702 -45.919325 L 31.105202 -43.415468 L 35.257338 -40.493652 L 39.13605 -37.173406 L 42.698372 -33.478167 L 45.909149 -29.443092 L 48.741039 -25.099428 L 51.15498 -20.482333 L 53.13535 -15.630868 L 54.654805 -10.591906 L 55.68991 -5.400604 L 56.236758 -0.111647 " transform="matrix(1.00005,0,0,-1.00002,60.990899,60.728195)"/>
</g>
</svg>
